<svg width="13" height="13" viewBox="0 0 13 13" fill="none" xmlns="http://www.w3.org/2000/svg">
<path d="M4.65388 5.11538C5.92839 5.11538 6.96158 4.08219 6.96158 2.80769C6.96158 1.53319 5.92839 0.5 4.65388 0.5C3.37938 0.5 2.34619 1.53319 2.34619 2.80769C2.34619 4.08219 3.37938 5.11538 4.65388 5.11538Z" stroke="#7678ED" stroke-linecap="round" stroke-linejoin="round"/>
<path d="M4.65385 11.5769H0.5V11.0765C0.507349 10.3729 0.692902 9.68266 1.03933 9.07027C1.38576 8.45784 1.88175 7.94322 2.48099 7.57446C3.08023 7.20569 3.76316 6.99483 4.46598 6.96155C4.52864 6.95859 4.59128 6.95704 4.65385 6.95691C4.71641 6.95704 4.77906 6.95859 4.84172 6.96155C5.54454 6.99483 6.22747 7.20569 6.82671 7.57446C7.1713 7.78651 7.48174 8.04679 7.74924 8.34617" stroke="#7678ED" stroke-linecap="round" stroke-linejoin="round"/>
<path d="M12.4999 7.88464L8.80758 12.5L6.96143 11.1154" stroke="#7678ED" stroke-linecap="round" stroke-linejoin="round"/>
</svg>
