<svg width="25" height="24" viewBox="0 0 25 24" fill="none" xmlns="http://www.w3.org/2000/svg">
<path d="M9.11529 9.46154C11.4519 9.46154 13.3461 7.56736 13.3461 5.23077C13.3461 2.89418 11.4519 1 9.11529 1C6.7787 1 4.88452 2.89418 4.88452 5.23077C4.88452 7.56736 6.7787 9.46154 9.11529 9.46154Z" stroke="#F2F2F2" stroke-width="1.5" stroke-linecap="round" stroke-linejoin="round"/>
<path d="M11.6538 21.3077H1.5V20.3903C1.51347 19.1004 1.85365 17.8349 2.48876 16.7122C3.12389 15.5894 4.03322 14.646 5.13181 13.9699C6.23042 13.2938 7.48246 12.9072 8.77097 12.8462C10.0595 12.7852 11.3424 13.0518 12.5 13.6211" stroke="#F2F2F2" stroke-width="1.5" stroke-linecap="round" stroke-linejoin="round"/>
<path d="M18.4231 12.8461V23" stroke="#F2F2F2" stroke-width="1.5" stroke-linecap="round" stroke-linejoin="round"/>
<path d="M13.3462 17.9231H23.5" stroke="#F2F2F2" stroke-width="1.5" stroke-linecap="round" stroke-linejoin="round"/>
</svg>
