<svg width="18" height="18" viewBox="0 0 18 18" fill="none" xmlns="http://www.w3.org/2000/svg">
<path d="M17 9C17 12.7712 17 14.6569 15.8284 15.8284C14.6569 17 12.7712 17 9 17C5.22876 17 3.34315 17 2.17157 15.8284C1 14.6569 1 12.7712 1 9C1 5.22876 1 3.34315 2.17157 2.17157C3.34315 1 5.22876 1 9 1" stroke="#F2F2F2" stroke-width="1.5" stroke-linecap="round"/>
<path d="M1 9.40011L2.40127 8.17401C3.13028 7.53613 4.22902 7.57271 4.91399 8.25768L8.34577 11.6895C8.89555 12.2392 9.76099 12.3142 10.3971 11.8671L10.6357 11.6995C11.5511 11.0562 12.7895 11.1307 13.6212 11.8792L16.2 14.2001" stroke="#F2F2F2" stroke-width="1.5" stroke-linecap="round"/>
<path d="M11.4004 3.8H14.2004M14.2004 3.8H17.0004M14.2004 3.8V6.6M14.2004 3.8V1" stroke="#F2F2F2" stroke-width="1.5" stroke-linecap="round"/>
</svg>
