<svg width="16" height="16" viewBox="0 0 16 16" fill="none" xmlns="http://www.w3.org/2000/svg">
<path d="M6.28289 2.15165L6.85078 3.16921C7.36327 4.08751 7.15754 5.29216 6.35037 6.09932C6.35037 6.09933 6.35037 6.09932 6.35037 6.09933C6.35026 6.09944 5.37141 7.07851 7.14645 8.85355C8.92083 10.6279 9.89986 9.65044 9.90067 9.64963C9.9007 9.64961 9.90069 9.64962 9.90071 9.64959C10.7079 8.84246 11.9125 8.63674 12.8308 9.14922L13.8484 9.71711C15.235 10.491 15.3988 12.4356 14.1799 13.6544C13.4475 14.3868 12.5504 14.9567 11.5586 14.9943C9.88893 15.0576 7.05349 14.635 4.20924 11.7908C1.36499 8.94651 0.942438 6.11107 1.00573 4.44145C1.04333 3.44965 1.6132 2.55246 2.34558 1.82008C3.56441 0.601247 5.50903 0.765008 6.28289 2.15165Z" stroke="#F2F2F2" stroke-linecap="round"/>
</svg>
