<svg width="22" height="22" viewBox="0 0 22 22" fill="none" xmlns="http://www.w3.org/2000/svg">
<path d="M8.54699 2.64521L9.35825 4.09888C10.0904 5.41073 9.79648 7.13165 8.64339 8.28475C8.64339 8.28475 8.64339 8.28475 8.64338 8.28475C8.64327 8.28487 7.24483 9.68354 9.78064 12.2194C12.3158 14.7545 13.7144 13.3574 13.7152 13.3566C13.7153 13.3566 13.7153 13.3566 13.7153 13.3566C14.8684 12.2035 16.5893 11.9096 17.9011 12.6417L19.3548 13.453C21.3357 14.5585 21.5696 17.3366 19.8285 19.0777C18.7822 20.124 17.5005 20.9381 16.0836 20.9918C13.6985 21.0822 9.64785 20.4786 5.58463 16.4154C1.52141 12.3522 0.917768 8.30153 1.00819 5.91636C1.0619 4.4995 1.876 3.21779 2.92226 2.17154C4.66344 0.430352 7.44147 0.664296 8.54699 2.64521Z" stroke="#838383" stroke-width="1.5" stroke-linecap="round"/>
</svg>
