<svg width="22" height="20" viewBox="0 0 22 20" fill="none" xmlns="http://www.w3.org/2000/svg">
<path d="M9.62134 2.03702C9.73993 1.73159 9.94805 1.46915 10.2184 1.28409C10.4888 1.09903 10.8088 1 11.1363 1C11.4641 1 11.7839 1.09903 12.0544 1.28409C12.3247 1.46915 12.5329 1.73159 12.6514 2.03702L14.4144 6.52713H19.1248C19.4598 6.53207 19.7857 6.63696 20.0606 6.82838C20.3355 7.01983 20.5468 7.28902 20.6675 7.60145C20.7843 7.90943 20.8044 8.24553 20.7256 8.56529C20.6471 8.88502 20.473 9.17332 20.2267 9.39194L16.0672 13.1107L17.8301 16.6367C17.9899 16.9463 18.0439 17.2995 17.9841 17.6427C17.9246 17.9857 17.7544 18.3 17.4996 18.5374C17.2467 18.7779 16.9252 18.9338 16.5795 18.9831C16.2341 19.0325 15.8818 18.973 15.5713 18.8129L11.1363 16.3062L6.70139 18.7303C6.39119 18.8903 6.03884 18.9498 5.69327 18.9005C5.34772 18.8512 5.02611 18.6953 4.77312 18.4548C4.5184 18.2173 4.34824 17.903 4.28858 17.5601C4.22888 17.2168 4.28296 16.8637 4.44256 16.5541L6.20555 13.0281L2.046 9.2818C1.79979 9.06314 1.6258 8.77483 1.5471 8.4551C1.4684 8.13534 1.48868 7.79924 1.60526 7.49127C1.74271 7.19944 1.96127 6.95336 2.23481 6.78241C2.50835 6.61143 2.82533 6.52281 3.14787 6.52713H7.85836L9.62134 2.03702Z" stroke="#838383" stroke-width="1.5" stroke-linecap="round" stroke-linejoin="round"/>
</svg>
