<svg width="26" height="21" viewBox="0 0 26 21" fill="none" xmlns="http://www.w3.org/2000/svg">
<path d="M1 10.6C1 6.07452 1 3.81178 2.40589 2.40589C3.81178 1 6.07452 1 10.6 1H15.4C19.9255 1 22.1882 1 23.5941 2.40589C25 3.81178 25 6.07452 25 10.6C25 15.1255 25 17.3882 23.5941 18.7941C22.1882 20.2 19.9255 20.2 15.4 20.2H10.6C6.07452 20.2 3.81178 20.2 2.40589 18.7941C1 17.3882 1 15.1255 1 10.6Z" stroke="#7678ED" stroke-width="1.5"/>
<path d="M5.7998 5.80005L8.39048 7.95895C10.5944 9.79558 11.6964 10.7139 12.9998 10.7139C14.3032 10.7139 15.4052 9.79558 17.6091 7.95894L20.1998 5.80005" stroke="#7678ED" stroke-width="1.5" stroke-linecap="round"/>
</svg>
