<svg width="25" height="24" viewBox="0 0 25 24" fill="none" xmlns="http://www.w3.org/2000/svg">
<path d="M13.6954 22.3266L14.3408 22.7086L13.6954 22.3266ZM14.2917 21.3191L13.6463 20.9371L14.2917 21.3191ZM10.7084 21.3191L10.063 21.7011H10.063L10.7084 21.3191ZM11.3047 22.3266L11.9501 21.9445H11.9501L11.3047 22.3266ZM1.91866 16.3048L2.61157 16.0178L1.91866 16.3048ZM7.86856 19.6907L7.85564 20.4406L7.86856 19.6907ZM4.89526 19.2814L4.60824 19.9743H4.60824L4.89526 19.2814ZM23.0814 16.3048L23.7743 16.5918L23.7743 16.5918L23.0814 16.3048ZM17.1315 19.6907L17.1186 18.9408L17.1315 19.6907ZM20.1048 19.2814L20.3918 19.9743L20.1048 19.2814ZM20.8738 1.81048L20.4819 2.44996L20.8738 1.81048ZM22.6896 3.62627L23.3291 3.2344V3.23439L22.6896 3.62627ZM4.12627 1.81048L3.73439 1.171V1.171L4.12627 1.81048ZM2.31048 3.62627L1.671 3.23439H1.671L2.31048 3.62627ZM9.6431 19.9309L10.0202 19.2826L10.0202 19.2826L9.6431 19.9309ZM14.3408 22.7086L14.9371 21.7011L13.6463 20.9371L13.05 21.9445L14.3408 22.7086ZM10.063 21.7011L10.6593 22.7086L11.9501 21.9445L11.3538 20.9371L10.063 21.7011ZM13.05 21.9445C12.8089 22.3518 12.1912 22.3518 11.9501 21.9445L10.6593 22.7086C11.4812 24.0971 13.5189 24.0971 14.3408 22.7086L13.05 21.9445ZM10.85 1.75H14.1501V0.25H10.85V1.75ZM22.7501 10.35V11.45H24.2501V10.35H22.7501ZM2.25 11.45V10.35H0.75V11.45H2.25ZM0.75 11.45C0.75 12.7211 0.749594 13.712 0.804073 14.5105C0.859011 15.3157 0.97226 15.9798 1.22575 16.5918L2.61157 16.0178C2.4464 15.6191 2.35032 15.1372 2.30059 14.4084C2.25041 13.6728 2.25 12.7417 2.25 11.45H0.75ZM7.88148 18.9408C6.5005 18.917 5.76394 18.8294 5.18227 18.5885L4.60824 19.9743C5.47925 20.3351 6.47482 20.4168 7.85564 20.4406L7.88148 18.9408ZM1.22575 16.5918C1.86009 18.1233 3.07681 19.34 4.60824 19.9743L5.18227 18.5885C4.01838 18.1064 3.09367 17.1817 2.61157 16.0178L1.22575 16.5918ZM22.7501 11.45C22.7501 12.7417 22.7497 13.6728 22.6995 14.4084C22.6498 15.1372 22.5537 15.6191 22.3885 16.0178L23.7743 16.5918C24.0278 15.9798 24.1411 15.3157 24.196 14.5105C24.2505 13.712 24.2501 12.7211 24.2501 11.45H22.7501ZM17.1444 20.4406C18.5252 20.4168 19.5208 20.3351 20.3918 19.9743L19.8178 18.5885C19.2362 18.8294 18.4996 18.917 17.1186 18.9408L17.1444 20.4406ZM22.3885 16.0178C21.9064 17.1817 20.9817 18.1064 19.8178 18.5885L20.3918 19.9743C21.9233 19.34 23.14 18.1233 23.7743 16.5918L22.3885 16.0178ZM14.1501 1.75C15.965 1.75 17.2735 1.75079 18.2953 1.84794C19.3059 1.94403 19.9583 2.12907 20.4819 2.44996L21.2657 1.171C20.4668 0.681411 19.5577 0.461208 18.4373 0.354678C17.328 0.249209 15.9359 0.25 14.1501 0.25V1.75ZM24.2501 10.35C24.2501 8.56417 24.2509 7.1721 24.1454 6.06284C24.0389 4.94242 23.8187 4.03334 23.3291 3.2344L22.0501 4.01814C22.371 4.54179 22.5561 5.1942 22.6521 6.20482C22.7493 7.2266 22.7501 8.53512 22.7501 10.35H24.2501ZM20.4819 2.44996C21.1211 2.84163 21.6585 3.379 22.0501 4.01814L23.3291 3.23439C22.8137 2.39342 22.1067 1.68635 21.2657 1.171L20.4819 2.44996ZM10.85 0.25C9.06417 0.25 7.6721 0.249209 6.56284 0.354678C5.44242 0.461208 4.53334 0.681411 3.73439 1.171L4.51814 2.44996C5.04179 2.12907 5.6942 1.94403 6.70482 1.84794C7.7266 1.75079 9.03512 1.75 10.85 1.75V0.25ZM2.25 10.35C2.25 8.53512 2.25079 7.2266 2.34794 6.20482C2.44403 5.1942 2.62907 4.54179 2.94996 4.01814L1.671 3.23439C1.18141 4.03334 0.961208 4.94242 0.854678 6.06284C0.749209 7.1721 0.75 8.56417 0.75 10.35H2.25ZM3.73439 1.171C2.89342 1.68635 2.18635 2.39342 1.671 3.23439L2.94996 4.01814C3.34163 3.379 3.879 2.84163 4.51814 2.44996L3.73439 1.171ZM11.3538 20.9371C11.1297 20.5585 10.9357 20.2292 10.7477 19.9712C10.5504 19.7006 10.3274 19.4612 10.0202 19.2826L9.26603 20.5792C9.33032 20.6166 9.40862 20.6807 9.53549 20.8547C9.67158 21.0415 9.82448 21.2982 10.063 21.7011L11.3538 20.9371ZM7.85564 20.4406C8.33726 20.4489 8.64726 20.455 8.88476 20.4813C9.10834 20.506 9.20421 20.5433 9.26603 20.5792L10.0202 19.2826C9.71053 19.1025 9.38682 19.0277 9.04985 18.9904C8.72678 18.9546 8.33525 18.9486 7.88148 18.9408L7.85564 20.4406ZM14.9371 21.7011C15.1756 21.2982 15.3285 21.0415 15.4646 20.8547C15.5914 20.6807 15.6697 20.6166 15.734 20.5792L14.9799 19.2826C14.6727 19.4612 14.4496 19.7006 14.2524 19.9712C14.0643 20.2292 13.8703 20.5585 13.6463 20.9371L14.9371 21.7011ZM17.1186 18.9408C16.6648 18.9486 16.2733 18.9546 15.9502 18.9904C15.6132 19.0277 15.2895 19.1025 14.9799 19.2826L15.734 20.5792C15.7958 20.5433 15.8917 20.506 16.1153 20.4813C16.3528 20.455 16.6628 20.4489 17.1444 20.4406L17.1186 18.9408Z" fill="#7678ED"/>
<path d="M8.1001 8.69995H16.9001" stroke="#7678ED" stroke-width="1.5" stroke-linecap="round"/>
<path d="M8.1001 12.55H14.1501" stroke="#7678ED" stroke-width="1.5" stroke-linecap="round"/>
</svg>
