<svg width="18" height="23" viewBox="0 0 18 23" fill="none" xmlns="http://www.w3.org/2000/svg">
<path d="M1 21.5H17" stroke="#F2F2F2" stroke-width="1.5" stroke-linecap="round"/>
<path d="M10.8881 3.16293L11.6296 2.42142C12.8581 1.19286 14.85 1.19286 16.0786 2.42142C17.3071 3.64999 17.3071 5.64188 16.0786 6.87044L15.3371 7.61195M10.8881 3.16293C10.8881 3.16293 10.9807 4.73862 12.3711 6.12894C13.7614 7.51926 15.3371 7.61195 15.3371 7.61195M10.8881 3.16293L4.07106 9.97992C3.60933 10.4416 3.37846 10.6725 3.17992 10.9271C2.94571 11.2273 2.74491 11.5522 2.58107 11.896C2.44219 12.1874 2.33894 12.4972 2.13245 13.1167L1.25745 15.7417M15.3371 7.61195L8.52008 14.4289C8.05835 14.8907 7.82749 15.1215 7.57293 15.3201C7.27265 15.5543 6.94775 15.7551 6.60398 15.9189C6.31256 16.0578 6.00282 16.1611 5.38334 16.3675L2.75834 17.2426M2.75834 17.2426L2.11667 17.4564C1.81182 17.5581 1.47573 17.4787 1.2485 17.2515C1.02128 17.0243 0.941942 16.6882 1.04356 16.3833L1.25745 15.7417M2.75834 17.2426L1.25745 15.7417" stroke="#F2F2F2" stroke-width="1.5"/>
</svg>
