<svg width="14" height="18" viewBox="0 0 14 18" fill="none" xmlns="http://www.w3.org/2000/svg">
<path d="M7.24996 7.49993C9.32101 7.49993 10.9999 5.82101 10.9999 3.74996C10.9999 1.67892 9.32101 0 7.24996 0C5.17892 0 3.5 1.67892 3.5 3.74996C3.5 5.82101 5.17892 7.49993 7.24996 7.49993Z" fill="#7678ED"/>
<path d="M0.5 18H7.24993H13.9999V17.1868C13.9879 16.0435 13.6864 14.9219 13.1235 13.9268C12.5605 12.9315 11.7545 12.0953 10.7808 11.4961C9.80703 10.8968 8.69728 10.5542 7.55521 10.5001C7.45339 10.4953 7.3516 10.4928 7.24993 10.4926C7.14826 10.4928 7.04648 10.4953 6.94466 10.5001C5.80258 10.5542 4.69283 10.8968 3.71907 11.4961C2.74533 12.0953 1.93934 12.9315 1.3764 13.9268C0.813462 14.9219 0.511941 16.0435 0.5 17.1868V18Z" fill="#7678ED"/>
</svg>
