<svg width="16" height="20" viewBox="0 0 16 20" fill="none" xmlns="http://www.w3.org/2000/svg">
<path d="M8.24996 8.49993C10.321 8.49993 11.9999 6.82101 11.9999 4.74996C11.9999 2.67892 10.321 1 8.24996 1C6.17892 1 4.5 2.67892 4.5 4.74996C4.5 6.82101 6.17892 8.49993 8.24996 8.49993Z" stroke="#7678ED" stroke-width="1.5" stroke-linecap="round" stroke-linejoin="round"/>
<path d="M1.5 19H8.24993H14.9999V18.1868C14.9879 17.0435 14.6864 15.9219 14.1235 14.9268C13.5605 13.9315 12.7545 13.0953 11.7808 12.4961C10.807 11.8968 9.69728 11.5542 8.55521 11.5001C8.45339 11.4953 8.3516 11.4928 8.24993 11.4926C8.14827 11.4928 8.04648 11.4953 7.94466 11.5001C6.80258 11.5542 5.69283 11.8968 4.71907 12.4961C3.74533 13.0953 2.93934 13.9315 2.3764 14.9268C1.81346 15.9219 1.51194 17.0435 1.5 18.1868V19Z" stroke="#7678ED" stroke-width="1.5" stroke-linecap="round" stroke-linejoin="round"/>
</svg>
