<svg width="20" height="18" viewBox="0 0 20 18" fill="none" xmlns="http://www.w3.org/2000/svg">
<path d="M8.62134 1.03702C8.73993 0.731585 8.94805 0.469147 9.21842 0.284089C9.48879 0.09903 9.80877 0 10.1363 0C10.4641 0 10.7839 0.09903 11.0544 0.284089C11.3247 0.469147 11.5329 0.731585 11.6514 1.03702L13.4144 5.52713H18.1248C18.4598 5.53207 18.7857 5.63696 19.0606 5.82838C19.3355 6.01983 19.5468 6.28902 19.6675 6.60145C19.7843 6.90943 19.8044 7.24553 19.7256 7.56529C19.6471 7.88502 19.473 8.17332 19.2267 8.39194L15.0672 12.1107L16.8301 15.6367C16.9899 15.9463 17.0439 16.2995 16.9841 16.6427C16.9246 16.9857 16.7544 17.3 16.4996 17.5374C16.2467 17.7779 15.9252 17.9338 15.5795 17.9831C15.2341 18.0325 14.8818 17.973 14.5713 17.8129L10.1363 15.3062L5.70139 17.7303C5.39119 17.8903 5.03884 17.9498 4.69327 17.9005C4.34772 17.8512 4.02611 17.6953 3.77312 17.4548C3.5184 17.2173 3.34824 16.903 3.28858 16.5601C3.22888 16.2168 3.28296 15.8637 3.44256 15.5541L5.20555 12.0281L1.046 8.2818C0.799789 8.06314 0.625805 7.77484 0.547104 7.4551C0.468403 7.13534 0.488678 6.79924 0.605255 6.49127C0.742713 6.19944 0.961268 5.95336 1.23481 5.78241C1.50835 5.61143 1.82533 5.52281 2.14787 5.52713H6.85836L8.62134 1.03702Z" fill="#7678ED"/>
</svg>
