<svg width="19" height="23" viewBox="0 0 19 23" fill="none" xmlns="http://www.w3.org/2000/svg">
<path d="M6.99989 11.5001C6.99989 13.0342 5.75624 14.2778 4.22211 14.2778C2.68799 14.2778 1.44434 13.0342 1.44434 11.5001C1.44434 9.96594 2.68799 8.72229 4.22211 8.72229C5.75624 8.72229 6.99989 9.96594 6.99989 11.5001Z" stroke="#F2F2F2" stroke-width="1.5"/>
<path d="M12.5556 5.38892L7 9.2778" stroke="#F2F2F2" stroke-width="1.5" stroke-linecap="round"/>
<path d="M12.5556 17.6111L7 13.7222" stroke="#F2F2F2" stroke-width="1.5" stroke-linecap="round"/>
<path d="M18.1112 18.7222C18.1112 20.2564 16.8676 21.5 15.3334 21.5C13.7993 21.5 12.5557 20.2564 12.5557 18.7222C12.5557 17.1881 13.7993 15.9445 15.3334 15.9445C16.8676 15.9445 18.1112 17.1881 18.1112 18.7222Z" stroke="#F2F2F2" stroke-width="1.5"/>
<path d="M18.1112 4.27778C18.1112 5.8119 16.8676 7.05556 15.3334 7.05556C13.7993 7.05556 12.5557 5.8119 12.5557 4.27778C12.5557 2.74365 13.7993 1.5 15.3334 1.5C16.8676 1.5 18.1112 2.74365 18.1112 4.27778Z" stroke="#F2F2F2" stroke-width="1.5"/>
</svg>
