<svg width="21" height="24" viewBox="0 0 21 24" fill="none" xmlns="http://www.w3.org/2000/svg">
<path d="M7.11111 12C7.11111 13.6876 5.74309 15.0556 4.05556 15.0556C2.36802 15.0556 1 13.6876 1 12C1 10.3125 2.36802 8.94446 4.05556 8.94446C5.74309 8.94446 7.11111 10.3125 7.11111 12Z" stroke="#7678ED" stroke-width="1.5"/>
<path d="M13.2224 5.27783L7.11133 9.55561" stroke="#7678ED" stroke-width="1.5" stroke-linecap="round"/>
<path d="M13.2224 18.7222L7.11133 14.4444" stroke="#7678ED" stroke-width="1.5" stroke-linecap="round"/>
<path d="M19.3333 19.9445C19.3333 21.632 17.9653 23 16.2777 23C14.5902 23 13.2222 21.632 13.2222 19.9445C13.2222 18.2569 14.5902 16.8889 16.2777 16.8889C17.9653 16.8889 19.3333 18.2569 19.3333 19.9445Z" stroke="#7678ED" stroke-width="1.5"/>
<path d="M19.3333 4.05556C19.3333 5.74309 17.9653 7.11111 16.2777 7.11111C14.5902 7.11111 13.2222 5.74309 13.2222 4.05556C13.2222 2.36802 14.5902 1 16.2777 1C17.9653 1 19.3333 2.36802 19.3333 4.05556Z" stroke="#7678ED" stroke-width="1.5"/>
</svg>
