<svg width="22" height="23" viewBox="0 0 22 23" fill="none" xmlns="http://www.w3.org/2000/svg">
<path d="M21 4.44128H1" stroke="#EF233C" stroke-width="1.5" stroke-linecap="round"/>
<path d="M19.0388 7.38245L18.4977 15.499C18.2895 18.6224 18.1854 20.1841 17.1677 21.1362C16.1501 22.0883 14.5849 22.0883 11.4545 22.0883H10.5447C7.41437 22.0883 5.8492 22.0883 4.83155 21.1362C3.81389 20.1841 3.70978 18.6224 3.50155 15.499L2.96045 7.38245" stroke="#EF233C" stroke-width="1.5" stroke-linecap="round"/>
<path d="M8.05908 10.3236L8.64732 16.2059" stroke="#EF233C" stroke-width="1.5" stroke-linecap="round"/>
<path d="M13.9413 10.3236L13.353 16.2059" stroke="#EF233C" stroke-width="1.5" stroke-linecap="round"/>
<path d="M4.5293 4.44126C4.59504 4.44126 4.62791 4.44126 4.65771 4.4405C5.62646 4.41595 6.48108 3.79998 6.81072 2.8887C6.82086 2.86067 6.83125 2.82949 6.85204 2.76712L6.96626 2.42446C7.06376 2.13195 7.11252 1.98569 7.17718 1.86151C7.43518 1.36607 7.91251 1.02203 8.46411 0.933943C8.60237 0.911865 8.75654 0.911865 9.06488 0.911865H12.9348C13.2432 0.911865 13.3973 0.911865 13.5356 0.933943C14.0872 1.02203 14.5645 1.36607 14.8225 1.86151C14.8872 1.98569 14.9359 2.13195 15.0334 2.42446L15.1477 2.76712C15.1684 2.8294 15.1789 2.86069 15.189 2.8887C15.5186 3.79998 16.3732 4.41595 17.342 4.4405C17.3718 4.44126 17.4047 4.44126 17.4704 4.44126" stroke="#EF233C" stroke-width="1.5"/>
</svg>
