<svg width="20" height="22" viewBox="0 0 20 22" fill="none" xmlns="http://www.w3.org/2000/svg">
<path d="M10.4996 9.33325C12.8008 9.33325 14.6663 7.46779 14.6663 5.16663C14.6663 2.86547 12.8008 1 10.4996 1C8.19847 1 6.33301 2.86547 6.33301 5.16663C6.33301 7.46779 8.19847 9.33325 10.4996 9.33325Z" stroke="#838383" stroke-width="1.5" stroke-linecap="round" stroke-linejoin="round"/>
<path d="M3 21H10.4999H17.9999V20.0965C17.9866 18.8262 17.6516 17.5799 17.0261 16.4742C16.4006 15.3684 15.505 14.4393 14.4231 13.7735C13.3411 13.1076 12.1081 12.7269 10.8391 12.6668C10.726 12.6615 10.6129 12.6587 10.4999 12.6584C10.387 12.6587 10.2739 12.6615 10.1607 12.6668C8.89176 12.7269 7.6587 13.1076 6.57675 13.7735C5.49481 14.4393 4.59927 15.3684 3.97377 16.4742C3.34829 17.5799 3.01327 18.8262 3 20.0965V21Z" stroke="#838383" stroke-width="1.5" stroke-linecap="round" stroke-linejoin="round"/>
</svg>
