<svg width="337" height="261" viewBox="0 0 337 261" fill="none" xmlns="http://www.w3.org/2000/svg">
<g clip-path="url(#clip0_34_312)">
<mask id="mask0_34_312" style="mask-type:luminance" maskUnits="userSpaceOnUse" x="110" y="3" width="149" height="243">
<path d="M258.321 3.52496H110.349V245.334H258.321V3.52496Z" fill="white"/>
</mask>
<g mask="url(#mask0_34_312)">
<path d="M208.202 147.426C208.202 147.426 208.889 156.55 222.067 156.55C242.556 156.555 246.616 135.395 245.956 122.653C245.296 109.907 229.253 69.0642 179.003 56.8632L177.148 137.812L208.202 147.426Z" fill="#7678ED"/>
<path d="M129.818 178.202C129.818 178.202 129.85 178.442 129.916 178.862C130.38 181.814 132.497 193.818 136.551 196.885C141.189 200.394 147.481 180.723 147.481 180.723C147.481 180.723 143.066 165.39 139.53 165.51C136 165.63 131.646 169.335 129.818 178.202Z" fill="#E4E4FB" stroke="#424242" stroke-width="0.54566" stroke-miterlimit="10" stroke-linecap="round" stroke-linejoin="round"/>
<path d="M128.492 187.505C128.492 187.505 114.801 177.067 114.135 145.456C113.475 113.846 121.862 96.4999 132.688 81.2159C143.514 65.932 170.006 57.3051 173.427 56.8686C176.854 56.4321 175.664 138.581 174.491 144.321C173.318 150.062 128.492 187.505 128.492 187.505Z" fill="#7678ED"/>
<path d="M174.491 144.322C173.318 150.062 128.492 187.505 128.492 187.505" stroke="#424242" stroke-width="0.54566" stroke-miterlimit="10" stroke-linecap="round" stroke-linejoin="round"/>
<path d="M139.972 131.117C139.972 131.117 130.423 130.778 122.304 133.79" stroke="#424242" stroke-width="0.54566" stroke-miterlimit="10" stroke-linecap="round" stroke-linejoin="round"/>
<path d="M136.273 127.466C136.273 127.466 130.882 125.856 124.487 127.139" stroke="#424242" stroke-width="0.54566" stroke-miterlimit="10" stroke-linecap="round" stroke-linejoin="round"/>
<path d="M148.463 162.634H196.934C196.934 162.634 199.766 67.0616 186.168 60.1263C172.57 53.1909 150.28 58.3856 143.656 93.9954C137.031 129.605 148.463 162.634 148.463 162.634Z" fill="#E4E4FB" stroke="#424242" stroke-width="0.54566" stroke-miterlimit="10" stroke-linecap="round" stroke-linejoin="round"/>
<path d="M175.588 62.0251L174.087 162.001" stroke="#424242" stroke-width="0.54566" stroke-miterlimit="10" stroke-linecap="round" stroke-linejoin="round"/>
<path d="M124.492 253.584L220.594 256.045L213.069 184.902L202.292 160.495L142.139 159.917L142.728 181.896C139.509 186.681 135.825 192.329 134.347 195.27C134.237 195.488 134.15 195.701 134.079 195.908H134.074L134.041 196.023C133.997 196.159 133.959 196.296 133.932 196.432L124.492 253.584Z" fill="#E4E4FB"/>
<path d="M213.571 189.639L213.516 189.109H210.155V178.294L209.626 177.088V189.104H195.488V174.966H208.687L208.453 174.437H195.488V160.429L194.958 160.424V174.437H180.82V160.288L180.291 160.282V174.437H166.153V160.146L165.624 160.14V174.437H151.486V160.004L150.956 159.998V174.437H142.526L142.542 174.966H150.951V189.104H137.992C137.877 189.284 137.768 189.459 137.653 189.633H150.951V203.771H136.813V190.981C136.633 191.276 136.453 191.565 136.284 191.849V203.771H132.72L132.633 204.301H136.284V218.439H130.298L130.21 218.968H136.284V233.106H127.875L127.788 233.635H136.284V247.773H125.452L125.365 248.303H136.284V253.885L136.813 253.896V248.297H150.951V254.256L151.48 254.267V248.297H165.618V254.632L166.148 254.643V248.297H180.286V255.009L180.815 255.02V248.297H194.953V255.38L195.482 255.391V248.292H209.62V255.751L210.15 255.762V248.286H219.775L219.72 247.757H210.155V233.619H218.225L218.171 233.09H210.155V218.973H216.676L216.621 218.444H210.155V204.306H215.126L215.071 203.777H210.155V189.639H213.571ZM150.951 247.773H136.813V233.635H150.951V247.773ZM150.951 233.106H136.813V218.973H150.951V233.106ZM150.951 218.439H136.813V204.301H150.951V218.439ZM165.618 247.773H151.48V233.635H165.618V247.773ZM165.618 233.106H151.48V218.973H165.618V233.106ZM165.618 218.439H151.48V204.301H165.618V218.439ZM165.618 203.771H151.48V189.633H165.618V203.771ZM165.618 189.104H151.48V174.966H165.618V189.104ZM180.286 247.773H166.148V233.635H180.286V247.773ZM180.286 233.106H166.148V218.973H180.286V233.106ZM180.286 218.439H166.148V204.301H180.286V218.439ZM180.286 203.771H166.148V189.633H180.286V203.771ZM180.286 189.104H166.148V174.966H180.286V189.104ZM194.953 247.773H180.815V233.635H194.953V247.773ZM194.953 233.106H180.815V218.973H194.953V233.106ZM194.953 218.439H180.815V204.301H194.953V218.439ZM194.953 203.771H180.815V189.633H194.953V203.771ZM194.953 189.104H180.815V174.966H194.953V189.104ZM209.62 247.773H195.482V233.635H209.62V247.773ZM209.62 233.106H195.482V218.973H209.62V233.106ZM209.62 218.439H195.482V204.301H209.62V218.439ZM209.62 203.771H195.482V189.633H209.62V203.771Z" fill="#B2B2F0"/>
<path d="M140.654 195.33C140.654 195.33 145.423 190.965 148.545 179.015" stroke="#424242" stroke-width="0.54566" stroke-miterlimit="10" stroke-linecap="round" stroke-linejoin="round"/>
<path d="M124.492 253.584L220.594 256.045L213.5 182.229L202.292 160.489L142.139 159.911L142.728 181.89C139.509 186.676 135.825 192.323 134.347 195.264C134.237 195.483 134.15 195.695 134.079 195.903H134.074L134.041 196.017C133.997 196.154 133.959 196.29 133.932 196.427L124.492 253.584Z" stroke="#424242" stroke-width="0.54566" stroke-miterlimit="10" stroke-linecap="round" stroke-linejoin="round"/>
<path d="M149.352 165.51H202.68" stroke="#424242" stroke-width="0.54566" stroke-miterlimit="10" stroke-linecap="round" stroke-linejoin="round"/>
<path d="M162.906 191.827H175.157L174.835 254.878" stroke="#424242" stroke-width="0.54566" stroke-miterlimit="10" stroke-linecap="round" stroke-linejoin="round"/>
<path d="M187.969 61.3594L183.396 55.4336H176.613H174.398H167.61L161.788 61.1794L166.415 74.5644L175.506 66.8379L184.596 74.5644L187.969 61.3594Z" fill="#E4E4FB" stroke="#424242" stroke-width="0.54566" stroke-miterlimit="10" stroke-linecap="round" stroke-linejoin="round"/>
<path d="M160.271 42.3105C160.145 41.492 156.37 34.6712 156.102 28.3525C155.835 22.0337 158.323 7.98846 175.446 9.55996C181.284 10.0947 194.282 10.182 194.233 25.335C194.184 40.6135 187.396 49.3495 185.868 50.1843C184.673 50.8391 177.296 53.8184 168.341 51.9523C165.859 51.4339 161.117 47.9471 160.271 42.3105Z" fill="#E4E4FB" stroke="#424242" stroke-width="0.54566" stroke-miterlimit="10" stroke-linecap="round" stroke-linejoin="round"/>
<path d="M176.805 64.4206H173.749C170.202 64.4206 167.326 61.545 167.326 57.9982V51.4612C167.326 47.9144 170.202 45.0388 173.749 45.0388H176.799C180.346 45.0388 183.221 47.9144 183.221 51.4612V57.9982C183.227 61.545 180.351 64.4206 176.805 64.4206Z" fill="#E4E4FB" stroke="#424242" stroke-width="0.54566" stroke-miterlimit="10"/>
<path d="M195.995 41.1919C195.946 43.5873 194.042 45.4862 191.734 45.4316C189.431 45.3771 187.603 43.3963 187.652 41.0009C187.701 38.6054 189.606 36.7065 191.914 36.7611C194.216 36.8157 196.044 38.8019 195.995 41.1919Z" fill="#E4E4FB" stroke="#424242" stroke-width="0.54566" stroke-miterlimit="10"/>
<path d="M189.557 41.6229C189.557 41.6229 189.431 38.6764 192.312 39.0638" stroke="#424242" stroke-width="0.54566" stroke-miterlimit="10" stroke-linecap="round" stroke-linejoin="round"/>
<path d="M154.569 40.9627C154.52 43.3581 156.348 45.3389 158.65 45.3934C160.953 45.448 162.857 43.5491 162.912 41.1537C162.961 38.7582 161.133 36.7775 158.83 36.7229C156.522 36.6738 154.618 38.5727 154.569 40.9627Z" fill="#E4E4FB" stroke="#424242" stroke-width="0.54566" stroke-miterlimit="10"/>
<path d="M160.98 41.683C160.98 41.683 161.226 38.7419 158.334 39.0038" stroke="#424242" stroke-width="0.54566" stroke-miterlimit="10" stroke-linecap="round" stroke-linejoin="round"/>
<path d="M188.449 44.4276C188.443 49.7696 184.269 54.1349 179.173 54.1295L171.353 54.1185C166.257 54.1131 162.088 49.7369 162.094 44.3949L162.115 27.2339C162.121 21.8919 166.295 17.5266 171.392 17.532L179.211 17.543C184.307 17.5484 188.476 21.9246 188.465 27.2666L188.449 44.4276Z" fill="#E4E4FB" stroke="#424242" stroke-width="0.54566" stroke-miterlimit="10"/>
<path d="M194.811 21.6845C193.665 14.5909 188.132 8.8506 182.752 9.23256C180.94 9.35806 180.422 10.0511 180.422 10.0511C179.478 8.94882 177.896 8.09759 175.582 8.1085C171.588 8.11942 159.518 8.94882 156.506 18.3833C153.494 27.8177 157.706 34.7694 157.706 34.7694L157.695 33.4762C158.896 34.9004 161.875 37.6723 161.875 37.6723L162.906 31.1735C162.906 31.1735 179.778 31.7683 180.591 22.6776C180.619 22.372 180.1 30.5788 185.819 32.5322C185.819 32.5322 184.193 28.1124 184.902 25.3568C184.902 25.3568 185.044 32.2048 188.749 33.5854L189.218 37.1976C189.218 37.1976 191.073 36.019 191.766 32.1066C191.815 34.6167 191.815 35.0204 191.815 35.0204C191.815 35.0204 196.355 31.2554 194.811 21.6845Z" fill="#E4E4FB"/>
<path d="M179.173 54.1295C184.269 54.1349 188.443 49.7696 188.449 44.4276L188.46 36.4392C187.761 39.0638 186.517 43.2981 185.568 44.002C184.182 45.0279 181.399 41.2192 175.517 40.8754C175.408 40.8699 175.304 40.8809 175.195 40.8863C175.091 40.8809 174.988 40.8699 174.873 40.8754C168.996 41.2192 166.208 45.0279 164.822 44.002C163.943 43.3527 162.808 39.6586 162.094 37.0339L162.083 44.4004C162.077 49.7424 166.241 54.1186 171.342 54.124L179.173 54.1295Z" fill="#E4E4FB" stroke="#424242" stroke-width="0.54566" stroke-miterlimit="10" stroke-linecap="round" stroke-linejoin="round"/>
<path d="M193.507 33.509C194.588 31.2499 195.723 27.3321 194.811 21.6845C193.665 14.5909 188.132 8.8506 182.752 9.23256C180.941 9.35806 180.422 10.0511 180.422 10.0511C179.478 8.94882 177.896 8.09759 175.582 8.1085C171.588 8.11942 159.518 8.94882 156.506 18.3833C153.494 27.8177 157.674 35.8117 157.674 35.8117" stroke="#424242" stroke-width="0.54566" stroke-miterlimit="10" stroke-linecap="round" stroke-linejoin="round"/>
<path d="M161.875 37.6669L162.907 31.1681C162.907 31.1681 179.778 31.7629 180.591 22.6722C180.619 22.3666 180.1 30.5733 185.819 32.5268C185.819 32.5268 184.193 28.107 184.902 25.3514C184.902 25.3514 185.044 32.1994 188.749 33.5799" stroke="#424242" stroke-width="0.54566" stroke-miterlimit="10" stroke-linecap="round" stroke-linejoin="round"/>
<path d="M138.821 99.2228L141.964 130.735L136.278 185.508C136.278 185.508 153.008 186.43 159.96 163.425C164.025 149.991 164.98 136.519 164.576 127.466C163.206 96.4181 161.788 61.0539 161.788 61.0539C161.788 61.0539 150.902 65.7029 147.48 70.783C144.059 75.8631 138.821 99.2228 138.821 99.2228Z" fill="#7678ED"/>
<path d="M161.788 61.2831C161.788 61.2831 163.207 96.4181 164.576 127.461C164.974 136.513 164.02 149.986 159.96 163.42C153.003 186.419 136.278 185.503 136.278 185.503L141.964 130.729L138.821 99.2174" stroke="#424242" stroke-width="0.54566" stroke-miterlimit="10" stroke-linecap="round" stroke-linejoin="round"/>
<path d="M160.816 132.006C160.293 131.346 152.506 96.8928 152.506 96.8928L156.659 96.0634L151.84 69.5662" stroke="#424242" stroke-width="0.54566" stroke-miterlimit="10" stroke-linecap="round" stroke-linejoin="round"/>
<path d="M210.952 99.2228L207.809 130.735L209.964 151.475L213.5 154.296L218.995 156.168L213.5 185.503C213.5 185.503 196.77 186.425 189.818 163.42C185.753 149.986 184.798 136.513 185.202 127.461C186.572 96.4127 187.979 61.2394 187.979 61.2394C187.979 61.2394 198.876 65.7029 202.298 70.783C205.713 75.8631 210.952 99.2228 210.952 99.2228Z" fill="#7678ED"/>
<path d="M207.809 130.735L210.952 99.2228" stroke="#424242" stroke-width="0.54566" stroke-miterlimit="10" stroke-linecap="round" stroke-linejoin="round"/>
<path d="M187.969 61.3595C187.969 61.3595 186.561 96.4181 185.191 127.461C184.793 136.513 185.748 149.986 189.807 163.42C196.765 186.419 213.489 185.503 213.489 185.503" stroke="#424242" stroke-width="0.54566" stroke-miterlimit="10" stroke-linecap="round" stroke-linejoin="round"/>
<path d="M188.956 132.006C189.48 131.346 197.267 96.8928 197.267 96.8928L193.114 96.0634L197.932 69.5662" stroke="#424242" stroke-width="0.54566" stroke-miterlimit="10" stroke-linecap="round" stroke-linejoin="round"/>
<path d="M208.202 147.426C208.202 147.426 208.922 155.617 222.067 156.55C238.491 157.718 246.66 139.558 245.994 126.817" stroke="#424242" stroke-width="0.54566" stroke-miterlimit="10" stroke-linecap="round" stroke-linejoin="round"/>
<path d="M172.215 43.9966C172.406 45.5953 173.694 46.8394 175.271 46.8394C176.848 46.8394 178.141 45.6008 178.332 44.002L172.215 43.9966Z" fill="#E4E4FB" stroke="#424242" stroke-width="0.54566" stroke-miterlimit="10" stroke-linecap="round" stroke-linejoin="round"/>
<path d="M175.167 33.8528C174.736 35.8008 174.321 37.7488 173.923 39.7022C174.747 39.7404 175.571 39.7786 176.389 39.8168" stroke="#424242" stroke-width="0.54566" stroke-miterlimit="10" stroke-linecap="round" stroke-linejoin="round"/>
<path d="M168.341 35.6044C168.352 36.3137 167.812 36.8976 167.141 36.9139C166.464 36.9248 165.908 36.3628 165.891 35.6535C165.88 34.9441 166.415 34.3602 167.092 34.3439C167.774 34.333 168.33 34.895 168.341 35.6044Z" fill="#424242"/>
<path d="M184.907 35.5825C184.918 36.2919 184.384 36.8757 183.707 36.8921C183.03 36.903 182.474 36.341 182.457 35.6316C182.446 34.9223 182.981 34.3384 183.658 34.322C184.334 34.3111 184.891 34.8731 184.907 35.5825Z" fill="#424242"/>
<path d="M165.356 33.0124C166.502 32.9415 167.648 32.8651 168.794 32.7942" stroke="#424242" stroke-width="1.09132" stroke-miterlimit="10" stroke-linecap="round"/>
<path d="M181.917 32.5214C183.156 32.8488 184.389 33.1816 185.628 33.509" stroke="#424242" stroke-width="1.09132" stroke-miterlimit="10" stroke-linecap="round"/>
<path d="M168.325 142.161L172.292 150.99C172.843 152.217 174.011 153.058 175.353 153.183L187.341 154.334C188.318 154.427 189.295 154.133 190.059 153.516L192.7 151.377C193.36 150.842 193.813 150.106 193.998 149.276L195.793 141.2L168.325 142.161Z" fill="#E4E4FB" stroke="#424242" stroke-width="0.54566" stroke-miterlimit="10" stroke-linecap="round" stroke-linejoin="round"/>
<path d="M196.546 143.203L199.657 151.786L208.475 146.335L207.656 134.647L196.044 140.682L196.546 143.203Z" fill="#E4E4FB" stroke="#424242" stroke-width="0.54566" stroke-miterlimit="10" stroke-linecap="round" stroke-linejoin="round"/>
<path d="M187.51 141.566L188.285 153.107" stroke="#424242" stroke-width="0.54566" stroke-miterlimit="10" stroke-linecap="round" stroke-linejoin="round"/>
<path d="M209.053 135.924C209.08 135.869 209.102 135.82 209.124 135.766C209.168 135.667 209.2 135.575 209.233 135.471C209.249 135.416 209.271 135.367 209.282 135.313C209.32 135.182 209.342 135.045 209.364 134.909C209.375 134.827 209.38 134.751 209.386 134.669C209.391 134.603 209.397 134.538 209.397 134.472C209.397 134.38 209.397 134.292 209.391 134.2C209.391 134.161 209.386 134.123 209.38 134.085C209.353 133.747 209.271 133.414 209.151 133.092C209.146 133.076 209.14 133.065 209.135 133.048C208.998 132.704 208.802 132.383 208.562 132.099C210.253 130.189 209.315 126.839 206.467 126.402L193.343 124.389C192.738 124.296 192.121 124.367 191.554 124.591L168.778 133.545C167.768 133.943 167.124 134.669 166.813 135.498C166.721 135.542 166.639 135.602 166.584 135.684C165.831 136.786 166.584 141.855 166.584 141.855L166.644 141.899C166.704 142.248 166.813 142.592 166.977 142.914C166.983 142.919 166.983 142.925 166.988 142.93C167.064 143.083 167.152 143.23 167.255 143.372C167.266 143.394 167.288 143.41 167.299 143.427C167.392 143.552 167.49 143.672 167.599 143.781C167.632 143.814 167.67 143.841 167.708 143.874C167.807 143.967 167.905 144.054 168.019 144.136C168.079 144.18 168.156 144.218 168.221 144.256C168.314 144.316 168.407 144.376 168.51 144.425C168.614 144.474 168.723 144.507 168.832 144.545C168.914 144.573 168.985 144.611 169.073 144.633C169.274 144.687 169.482 144.731 169.705 144.753L188.662 146.673C189.338 146.744 190.015 146.613 190.615 146.297L207.563 137.435C207.727 137.348 207.88 137.25 208.022 137.146C208.065 137.119 208.104 137.086 208.142 137.053C208.245 136.972 208.344 136.884 208.436 136.791C208.469 136.759 208.502 136.731 208.529 136.699C208.638 136.579 208.742 136.453 208.829 136.322C208.851 136.289 208.867 136.257 208.889 136.229C208.938 136.137 208.998 136.033 209.053 135.924Z" fill="#E4E4FB" stroke="#424242" stroke-width="0.54566" stroke-miterlimit="10" stroke-linecap="round" stroke-linejoin="round"/>
<path d="M204.153 108.166H182.414C182.414 108.166 184.345 134.041 184.345 134.216C184.345 136.186 188.35 137.779 193.294 137.779C198.238 137.779 202.243 136.186 202.243 134.216C202.243 134.145 204.153 108.166 204.153 108.166Z" fill="#E4E4FB" stroke="#424242" stroke-width="0.54566" stroke-miterlimit="10"/>
<path d="M182.316 107.211H204.6V104.969C204.6 104.096 203.891 103.386 203.018 103.386H183.892C183.019 103.386 182.31 104.096 182.31 104.969L182.316 107.211Z" fill="#424242"/>
<path d="M181.639 109.656H205.108C205.828 109.656 206.412 109.072 206.412 108.352V108.106C206.412 107.386 205.828 106.802 205.108 106.802H181.639C180.919 106.802 180.335 107.386 180.335 108.106V108.352C180.335 109.072 180.919 109.656 181.639 109.656Z" fill="#424242"/>
<path d="M190.899 110.774H169.16C169.16 110.774 171.092 136.65 171.092 136.824C171.092 138.794 175.097 140.387 180.04 140.387C184.984 140.387 188.989 138.794 188.989 136.824C188.989 136.759 190.899 110.774 190.899 110.774Z" fill="#E4E4FB" stroke="#424242" stroke-width="0.54566" stroke-miterlimit="10"/>
<path d="M169.062 109.82H191.346V107.577C191.346 106.704 190.637 105.994 189.764 105.994H170.639C169.766 105.994 169.056 106.704 169.056 107.577L169.062 109.82Z" fill="#424242"/>
<path d="M168.385 112.27H191.854C192.574 112.27 193.158 111.686 193.158 110.965V110.72C193.158 110 192.574 109.416 191.854 109.416H168.385C167.665 109.416 167.081 110 167.081 110.72V110.965C167.081 111.686 167.665 112.27 168.385 112.27Z" fill="#424242"/>
<path d="M168.68 136.295C169.154 136.655 169.744 136.901 170.448 136.972L189.404 138.892C190.081 138.963 190.757 138.832 191.357 138.516L196.803 135.667L208.306 129.654C208.306 129.654 209.964 133.179 207.105 135.531C204.246 137.883 193.709 144.551 187.898 144.813C182.087 145.075 171.386 142.794 169.16 142.161C166.934 141.522 168.68 136.295 168.68 136.295Z" fill="#E4E4FB"/>
<path d="M168.772 133.556C165.395 134.882 166.077 139.858 169.689 140.224L188.645 142.144C189.322 142.215 189.999 142.084 190.599 141.768L196.044 138.92L207.547 132.906" stroke="#424242" stroke-width="0.54566" stroke-miterlimit="10" stroke-linecap="round" stroke-linejoin="round"/>
<path d="M168.68 136.295C169.154 136.655 169.744 136.901 170.448 136.972L189.404 138.892C190.08 138.963 190.757 138.832 191.357 138.516L196.803 135.667L208.306 129.654" stroke="#424242" stroke-width="0.54566" stroke-miterlimit="10" stroke-linecap="round" stroke-linejoin="round"/>
<path d="M200.546 148.501C200.546 148.501 196.656 148.501 196.344 146.068C196.072 143.929 197.79 142.608 204.611 142.87C211.437 143.132 200.546 148.501 200.546 148.501Z" fill="#E4E4FB" stroke="#424242" stroke-width="0.54566" stroke-miterlimit="10" stroke-linecap="round" stroke-linejoin="round"/>
<path d="M218.422 126.915C214.826 126.315 208.922 125.354 204.349 126.986C199.815 128.601 193.371 131.378 194.904 134.876C195.99 137.348 197.578 136.568 202.811 135.313C203.984 135.029 204.933 134.838 205.724 134.701C205.724 134.701 205.724 134.701 205.73 134.701C205.73 134.707 205.73 134.712 205.73 134.718L205.724 134.701C205.724 134.701 204.535 139.143 206.832 140.633C206.87 140.742 206.909 140.84 206.936 140.927C205.49 142.428 203.525 143.934 200.934 144.916C194.991 147.153 195.493 151.262 197.55 152.19C199.4 153.025 204.802 152.49 209.386 150.04C209.462 150.045 213.555 150.406 215.977 149.238C218.422 148.059 221.712 142.068 223.568 137.85C225.423 133.627 225.106 128.034 218.422 126.915Z" fill="#E4E4FB"/>
<path d="M210.303 135.973C210.303 135.973 207.831 142.314 200.934 144.911C194.991 147.148 195.493 151.257 197.551 152.185C199.608 153.112 206.063 152.354 210.892 149.145C215.726 145.942 217.074 142.003 217.074 142.003" stroke="#424242" stroke-width="0.54566" stroke-miterlimit="10" stroke-linecap="round" stroke-linejoin="round"/>
<path d="M209.375 150.04C209.375 150.04 213.527 150.417 215.977 149.238C218.422 148.059 221.712 142.068 223.568 137.85C225.423 133.632 225.45 128.208 218.422 126.92C214.837 126.26 208.922 125.36 204.349 126.991C199.815 128.607 193.371 131.384 194.904 134.882C195.99 137.353 197.578 136.573 202.811 135.318C207.503 134.189 208.622 134.467 210.308 134.292" stroke="#424242" stroke-width="0.54566" stroke-miterlimit="10" stroke-linecap="round" stroke-linejoin="round"/>
<path d="M205.724 134.702C205.724 134.702 204.448 139.454 207.083 140.78" stroke="#424242" stroke-width="0.54566" stroke-miterlimit="10" stroke-linecap="round" stroke-linejoin="round"/>
</g>
<mask id="mask1_34_312" style="mask-type:luminance" maskUnits="userSpaceOnUse" x="0" y="0" width="137" height="246">
<path d="M136.813 0H0V245.334H136.813V0Z" fill="white"/>
</mask>
<g mask="url(#mask1_34_312)">
<path d="M101.46 172.963H35.6807C33.4162 190.272 26.1589 245.683 24.6475 256.045H110.414C110.414 256.045 105.471 200.917 101.46 172.963Z" fill="#E4E4FB" stroke="#424242" stroke-width="0.54566" stroke-miterlimit="10" stroke-linecap="round" stroke-linejoin="round"/>
<path d="M41.6174 175.304L37.2958 235.616" stroke="#424242" stroke-width="0.54566" stroke-miterlimit="10" stroke-linecap="round" stroke-linejoin="round"/>
<path d="M53.9167 175.119L52.176 246.715" stroke="#424242" stroke-width="0.54566" stroke-miterlimit="10" stroke-linecap="round" stroke-linejoin="round"/>
<path d="M66.1779 173.967V216.687" stroke="#424242" stroke-width="0.54566" stroke-miterlimit="10" stroke-linecap="round" stroke-linejoin="round"/>
<path d="M79.1044 173.967L82.0728 246.715" stroke="#424242" stroke-width="0.54566" stroke-miterlimit="10" stroke-linecap="round" stroke-linejoin="round"/>
<path d="M91.5671 175.119L95.2067 227.928" stroke="#424242" stroke-width="0.54566" stroke-miterlimit="10" stroke-linecap="round" stroke-linejoin="round"/>
<path d="M86.738 81.9744C86.1705 77.4837 84.2389 75.7703 83.3822 74.3461C82.5255 72.9274 81.969 70.27 83.6987 67.8801C85.4284 65.4901 93.406 67.76 96.0306 72.3108C98.6552 76.8616 100.565 91.016 100.565 91.016L93.5151 93.6024C93.5151 93.6024 87.5292 88.2386 86.738 81.9744Z" fill="#E4E4FB" stroke="#424242" stroke-width="0.54566" stroke-miterlimit="10" stroke-linecap="round" stroke-linejoin="round"/>
<path d="M93.4005 68.453L88.7624 76.7416C88.2931 77.5819 87.0926 77.6037 86.5906 76.7798L79.2842 64.7534C79.0933 64.4424 79.0496 64.0604 79.1642 63.7112L82.1544 54.4896C82.4764 53.5019 83.7914 53.3055 84.3862 54.1622L93.335 67.1216C93.6078 67.5199 93.6351 68.0328 93.4005 68.453Z" fill="#424242" stroke="#424242" stroke-width="0.54566" stroke-miterlimit="10" stroke-linecap="round" stroke-linejoin="round"/>
<path d="M92.0472 68.0165L88.1839 74.9191C87.8511 75.5193 86.9889 75.5357 86.6343 74.9464L80.6265 65.059C80.4901 64.8353 80.4574 64.5625 80.5392 64.3169L83.0329 56.6231C83.2621 55.9137 84.2006 55.7773 84.6262 56.3885L91.9981 67.067C92.2 67.3508 92.2164 67.7164 92.0472 68.0165Z" fill="#E4E4FB" stroke="#424242" stroke-width="0.54566" stroke-miterlimit="10" stroke-linecap="round" stroke-linejoin="round"/>
<path d="M90.2739 57.8017C92.7349 58.1182 94.8847 62.2707 94.8847 62.2707C97.4439 64.557 98.6989 68.5239 98.7044 68.5458C99.7848 69.9426 100.636 71.3668 101.007 72.3163C102.098 75.0882 101.007 83.4259 101.007 83.4259L103.468 90.585L98.7971 91.8945L93.5206 79.7045C93.2478 77.2981 94.7865 75.0282 94.3937 72.7746C94.0281 70.6793 90.2357 66.3304 91.3762 64.7261L91.3707 64.7207C89.7828 63.7712 89.0353 62.4671 88.9753 61.474L88.8061 61.4522C87.0109 59.2041 87.8075 57.4852 90.2739 57.8017Z" fill="#E4E4FB"/>
<path d="M93.5151 79.7045C93.2423 77.2982 94.781 75.0282 94.3882 72.7746C93.9953 70.5211 89.6355 65.6592 91.709 64.4097C94.6828 62.6199 99.9048 69.5389 101.002 72.3108C102.093 75.0828 101.002 83.4205 101.002 83.4205L103.462 90.5795L98.7916 91.8891" stroke="#424242" stroke-width="0.54566" stroke-miterlimit="10" stroke-linecap="round" stroke-linejoin="round"/>
<path d="M98.7043 68.5458C98.7043 68.5458 97.4547 64.5624 94.8847 62.2707C92.3146 59.9734 90.5303 59.3023 89.3626 60.3336C88.495 61.103 88.997 63.3074 91.3706 64.7261" stroke="#424242" stroke-width="0.54566" stroke-miterlimit="10" stroke-linecap="round" stroke-linejoin="round"/>
<path d="M94.8846 62.2707C94.8846 62.2707 92.7347 58.1182 90.2738 57.8017C87.8128 57.4852 87.0162 59.2041 88.8059 61.4576" stroke="#424242" stroke-width="0.54566" stroke-miterlimit="10" stroke-linecap="round" stroke-linejoin="round"/>
<path d="M83.6495 93.4715L106.016 84.168C106.016 84.168 130.664 120.154 133.79 138.325C137.048 157.243 111.331 170.999 95.965 152.152C78.3293 130.527 83.6495 93.4715 83.6495 93.4715Z" fill="#E4E4FB"/>
<path d="M102.317 93.8316L103.463 100.647" stroke="#B2B2F0" stroke-width="0.54566" stroke-miterlimit="10" stroke-linecap="round" stroke-linejoin="round"/>
<path d="M91.7526 105.389C92.391 104.75 94.6391 100.647 94.6391 100.647" stroke="#B2B2F0" stroke-width="0.54566" stroke-miterlimit="10" stroke-linecap="round" stroke-linejoin="round"/>
<path d="M99.621 110.954L103.462 115.107" stroke="#B2B2F0" stroke-width="0.54566" stroke-miterlimit="10" stroke-linecap="round" stroke-linejoin="round"/>
<path d="M111.68 103.681L115.434 98.8845" stroke="#B2B2F0" stroke-width="0.54566" stroke-miterlimit="10" stroke-linecap="round" stroke-linejoin="round"/>
<path d="M115.434 113.803L120.241 117.24" stroke="#B2B2F0" stroke-width="0.54566" stroke-miterlimit="10" stroke-linecap="round" stroke-linejoin="round"/>
<path d="M110.349 123.876L109.219 128.972" stroke="#B2B2F0" stroke-width="0.54566" stroke-miterlimit="10" stroke-linecap="round" stroke-linejoin="round"/>
<path d="M98.2896 128.028L102.889 124.427" stroke="#B2B2F0" stroke-width="0.54566" stroke-miterlimit="10" stroke-linecap="round" stroke-linejoin="round"/>
<path d="M104.832 137.266L104.003 142.128" stroke="#B2B2F0" stroke-width="0.54566" stroke-miterlimit="10" stroke-linecap="round" stroke-linejoin="round"/>
<path d="M118.343 128.028L121.426 133.119" stroke="#B2B2F0" stroke-width="0.54566" stroke-miterlimit="10" stroke-linecap="round" stroke-linejoin="round"/>
<path d="M128.148 122.233L123.439 123.876" stroke="#B2B2F0" stroke-width="0.54566" stroke-miterlimit="10" stroke-linecap="round" stroke-linejoin="round"/>
<path d="M114.108 140.698V148.883" stroke="#B2B2F0" stroke-width="0.54566" stroke-miterlimit="10" stroke-linecap="round" stroke-linejoin="round"/>
<path d="M123.439 142.717L128.148 145.68" stroke="#B2B2F0" stroke-width="0.54566" stroke-miterlimit="10" stroke-linecap="round" stroke-linejoin="round"/>
<path d="M129.72 137.266L133.79 138.319" stroke="#B2B2F0" stroke-width="0.54566" stroke-miterlimit="10" stroke-linecap="round" stroke-linejoin="round"/>
<path d="M107.086 151.606L103.462 154.836" stroke="#B2B2F0" stroke-width="0.54566" stroke-miterlimit="10" stroke-linecap="round" stroke-linejoin="round"/>
<path d="M112.777 156.703L115.696 161.024" stroke="#B2B2F0" stroke-width="0.54566" stroke-miterlimit="10" stroke-linecap="round" stroke-linejoin="round"/>
<path d="M122.135 151.606L125.796 156.703" stroke="#B2B2F0" stroke-width="0.54566" stroke-miterlimit="10" stroke-linecap="round" stroke-linejoin="round"/>
<path d="M82.9624 102.469C83.1479 96.9801 83.6499 93.4715 83.6499 93.4715L106.017 84.168C106.017 84.168 107.648 86.5471 110.12 90.3885C104.112 93.0131 92.4296 98.2296 82.9624 102.469Z" stroke="#424242" stroke-width="0.54566" stroke-miterlimit="10"/>
<path d="M83.6495 93.4715L106.016 84.168C106.016 84.168 130.664 120.154 133.79 138.325C137.048 157.243 111.331 170.999 95.965 152.152C78.3293 130.527 83.6495 93.4715 83.6495 93.4715Z" stroke="#424242" stroke-width="0.54566" stroke-miterlimit="10" stroke-linecap="round" stroke-linejoin="round"/>
<path d="M87.3927 91.9109L89.0679 99.7357" stroke="#424242" stroke-width="0.54566" stroke-miterlimit="10"/>
<path d="M92.2054 89.9084L94.9938 97.0892" stroke="#424242" stroke-width="0.54566" stroke-miterlimit="10"/>
<path d="M97.7985 87.5839L101.542 94.1754" stroke="#424242" stroke-width="0.54566" stroke-miterlimit="10"/>
<path d="M103.462 85.2266L107.347 91.5999" stroke="#424242" stroke-width="0.54566" stroke-miterlimit="10"/>
<path d="M30.9879 176.843V151.431L41.6228 102.349L70.3354 82.5419C97.4984 98.1369 103.986 149.527 105.498 176.843H30.9879Z" fill="#E4E4FB"/>
<path d="M70.963 104.423L68.5348 108.128" stroke="#B2B2F0" stroke-width="0.54566" stroke-miterlimit="10" stroke-linecap="round" stroke-linejoin="round"/>
<path d="M56.2793 126.599C56.5139 126.124 57.8181 120.078 57.8181 120.078" stroke="#B2B2F0" stroke-width="0.54566" stroke-miterlimit="10" stroke-linecap="round" stroke-linejoin="round"/>
<path d="M68.8895 119.587L74.488 122.664" stroke="#B2B2F0" stroke-width="0.54566" stroke-miterlimit="10" stroke-linecap="round" stroke-linejoin="round"/>
<path d="M73.3694 113.388L79.9446 114.097" stroke="#B2B2F0" stroke-width="0.54566" stroke-miterlimit="10" stroke-linecap="round" stroke-linejoin="round"/>
<path d="M77.6365 98.4534L79.9446 93.5643" stroke="#B2B2F0" stroke-width="0.54566" stroke-miterlimit="10" stroke-linecap="round" stroke-linejoin="round"/>
<path d="M83.6769 100.587L86.1705 104.423" stroke="#B2B2F0" stroke-width="0.54566" stroke-miterlimit="10" stroke-linecap="round" stroke-linejoin="round"/>
<path d="M80.5776 141.544L74.488 147.181" stroke="#B2B2F0" stroke-width="0.54566" stroke-miterlimit="10" stroke-linecap="round" stroke-linejoin="round"/>
<path d="M87.4147 134.898L91.2343 139.607" stroke="#B2B2F0" stroke-width="0.54566" stroke-miterlimit="10" stroke-linecap="round" stroke-linejoin="round"/>
<path d="M87.4147 147.977L86.4325 154.465" stroke="#B2B2F0" stroke-width="0.54566" stroke-miterlimit="10" stroke-linecap="round" stroke-linejoin="round"/>
<path d="M95.4139 147.606L100.478 150.362" stroke="#B2B2F0" stroke-width="0.54566" stroke-miterlimit="10" stroke-linecap="round" stroke-linejoin="round"/>
<path d="M98.6989 140.851L100.876 139.138" stroke="#B2B2F0" stroke-width="0.54566" stroke-miterlimit="10" stroke-linecap="round" stroke-linejoin="round"/>
<path d="M76.6597 155.388L74.166 160.271" stroke="#B2B2F0" stroke-width="0.54566" stroke-miterlimit="10" stroke-linecap="round" stroke-linejoin="round"/>
<path d="M60.1262 151.606L62.7017 157.827" stroke="#B2B2F0" stroke-width="0.54566" stroke-miterlimit="10" stroke-linecap="round" stroke-linejoin="round"/>
<path d="M66.7014 164.582L67.6781 168.052" stroke="#B2B2F0" stroke-width="0.54566" stroke-miterlimit="10" stroke-linecap="round" stroke-linejoin="round"/>
<path d="M82.5255 162.541L84.9264 167.518" stroke="#B2B2F0" stroke-width="0.54566" stroke-miterlimit="10" stroke-linecap="round" stroke-linejoin="round"/>
<path d="M75.4155 175.784L77.5327 170.982" stroke="#B2B2F0" stroke-width="0.54566" stroke-miterlimit="10" stroke-linecap="round" stroke-linejoin="round"/>
<path d="M94.7919 158.361L97.9458 161.826" stroke="#B2B2F0" stroke-width="0.54566" stroke-miterlimit="10" stroke-linecap="round" stroke-linejoin="round"/>
<path d="M92.2109 174.186L93.9898 169.918" stroke="#B2B2F0" stroke-width="0.54566" stroke-miterlimit="10" stroke-linecap="round" stroke-linejoin="round"/>
<path d="M101.547 170.982L105.22 172.483" stroke="#B2B2F0" stroke-width="0.54566" stroke-miterlimit="10" stroke-linecap="round" stroke-linejoin="round"/>
<path d="M59.0567 162.541L56.2793 165.739" stroke="#B2B2F0" stroke-width="0.54566" stroke-miterlimit="10" stroke-linecap="round" stroke-linejoin="round"/>
<path d="M59.6787 176.226L61.4139 170.273" stroke="#B2B2F0" stroke-width="0.54566" stroke-miterlimit="10" stroke-linecap="round" stroke-linejoin="round"/>
<path d="M48.8364 169.471L52.8361 171.73" stroke="#B2B2F0" stroke-width="0.54566" stroke-miterlimit="10" stroke-linecap="round" stroke-linejoin="round"/>
<path d="M39.593 175.162L42.616 170.982" stroke="#B2B2F0" stroke-width="0.54566" stroke-miterlimit="10" stroke-linecap="round" stroke-linejoin="round"/>
<path d="M35.506 164.582L37.012 169.471" stroke="#B2B2F0" stroke-width="0.54566" stroke-miterlimit="10" stroke-linecap="round" stroke-linejoin="round"/>
<path d="M30.9879 174.186L33.7271 172.483" stroke="#B2B2F0" stroke-width="0.54566" stroke-miterlimit="10" stroke-linecap="round" stroke-linejoin="round"/>
<path d="M46.9703 176.843V174.186" stroke="#B2B2F0" stroke-width="0.54566" stroke-miterlimit="10" stroke-linecap="round" stroke-linejoin="round"/>
<path d="M30.9879 176.843V151.431L41.6228 102.349L70.3354 82.5419C97.4984 98.1369 103.986 149.527 105.498 176.843H30.9879Z" stroke="#424242" stroke-width="0.54566" stroke-miterlimit="10" stroke-linecap="round" stroke-linejoin="round"/>
<path d="M96.3472 106.802L97.2475 134.096C97.2748 134.974 96.62 135.727 95.7469 135.82L93.919 136.011L84.5827 136.993L82.7548 137.184C81.8817 137.277 81.0796 136.677 80.9268 135.809L76.125 108.925L96.3472 106.802Z" fill="#E4E4FB" stroke="#424242" stroke-width="0.54566" stroke-miterlimit="10"/>
<path d="M75.945 108.046L96.6746 105.863L96.4563 103.779C96.369 102.966 95.6433 102.377 94.8303 102.464L77.0418 104.336C76.2287 104.423 75.6394 105.149 75.7267 105.962L75.945 108.046Z" fill="#424242"/>
<path d="M75.5576 110.392L97.3894 108.095C98.0606 108.024 98.5462 107.424 98.4753 106.753L98.4534 106.524C98.3825 105.853 97.7823 105.367 97.1111 105.438L75.2793 107.735C74.6081 107.806 74.1225 108.406 74.1934 109.077L74.2152 109.307C74.2862 109.978 74.8864 110.463 75.5576 110.392Z" fill="#424242"/>
<path d="M65.3755 127.04L68.584 137.424C68.584 137.424 80.3757 136.961 83.4805 133.507C85.4994 131.258 89.3682 130.402 94.5465 128.705C98.2297 127.499 98.4916 124.934 96.8819 123.952L97.0674 123.963C97.7713 123.559 98.6171 122.883 98.7371 121.922C98.8735 120.804 98.5189 120.1 97.7331 119.816L97.9077 119.821C97.9077 119.821 98.4861 118.299 97.9459 117.426C97.5912 116.853 97.0674 116.313 95.6378 116.127L95.8997 115.816C95.8997 115.816 96.1834 112.51 92.975 112.362C89.7665 112.215 84.7792 113.475 81.5325 114.927C78.2858 116.378 76.6052 118.348 74.5753 120.733C72.5345 123.117 65.3755 127.04 65.3755 127.04Z" fill="#E4E4FB"/>
<path d="M95.8942 115.822C95.8942 115.822 96.1779 112.515 92.9694 112.368C89.7609 112.22 84.7736 113.481 81.5269 114.932C78.2803 116.384 76.5996 118.354 74.5698 120.738C72.5399 123.123 65.3809 127.046 65.3809 127.046L68.5893 137.43C68.5893 137.43 80.381 136.966 83.4859 133.512C85.5048 131.264 89.3735 130.407 94.5518 128.71C99.7301 127.013 98.1641 122.61 94.1044 123.739C94.1044 123.739 89.6027 124.831 87.2946 126.124" stroke="#424242" stroke-width="0.54566" stroke-miterlimit="10" stroke-linecap="round" stroke-linejoin="round"/>
<path d="M83.5514 119.483C83.5514 119.483 88.4241 116.624 92.4456 116.182C96.4672 115.74 97.4002 116.553 97.9404 117.426C98.4861 118.304 97.9022 119.821 97.9022 119.821" stroke="#424242" stroke-width="0.54566" stroke-miterlimit="10" stroke-linecap="round" stroke-linejoin="round"/>
<path d="M85.6958 123.139C85.6958 123.139 89.3463 120.995 95.7469 119.789C97.8968 119.385 98.9553 120.111 98.7371 121.933C98.6225 122.893 97.7767 123.57 97.0673 123.974" stroke="#424242" stroke-width="0.54566" stroke-miterlimit="10" stroke-linecap="round" stroke-linejoin="round"/>
<path d="M16.6099 114.097C35.3042 90.4812 65.7411 81.9689 65.7411 81.9689L73.1839 84.0096L70.401 98.426L54.9261 115.603L44.8969 125.382L28.0578 127.717L64.5134 122.659L72.5237 143.759C48.2527 170.906 21.0025 168.827 13.3523 162.268C5.6967 155.715 -1.86069 137.424 16.6099 114.097Z" fill="#E4E4FB"/>
<path d="M48.2363 92.7676L49.3004 96.4399" stroke="#B2B2F0" stroke-width="0.54566" stroke-miterlimit="10" stroke-linecap="round" stroke-linejoin="round"/>
<path d="M59.4114 100.172L63.6784 98.748" stroke="#B2B2F0" stroke-width="0.54566" stroke-miterlimit="10" stroke-linecap="round" stroke-linejoin="round"/>
<path d="M51.3194 105.269L49.3004 108.232" stroke="#B2B2F0" stroke-width="0.54566" stroke-miterlimit="10" stroke-linecap="round" stroke-linejoin="round"/>
<path d="M32.7778 103.49L36.0954 105.269" stroke="#B2B2F0" stroke-width="0.54566" stroke-miterlimit="10" stroke-linecap="round" stroke-linejoin="round"/>
<path d="M41.4264 114.217L39.2983 117.655" stroke="#B2B2F0" stroke-width="0.54566" stroke-miterlimit="10" stroke-linecap="round" stroke-linejoin="round"/>
<path d="M48.2363 117.595L49.3004 121.082" stroke="#B2B2F0" stroke-width="0.54566" stroke-miterlimit="10" stroke-linecap="round" stroke-linejoin="round"/>
<path d="M24.8385 110.954L21.9956 115.936" stroke="#B2B2F0" stroke-width="0.54566" stroke-miterlimit="10" stroke-linecap="round" stroke-linejoin="round"/>
<path d="M33.1706 127.002L31.4736 122.664" stroke="#B2B2F0" stroke-width="0.54566" stroke-miterlimit="10" stroke-linecap="round" stroke-linejoin="round"/>
<path d="M20.6914 126.484L18.1978 130.511" stroke="#B2B2F0" stroke-width="0.54566" stroke-miterlimit="10" stroke-linecap="round" stroke-linejoin="round"/>
<path d="M11.7426 121.082H15.9496" stroke="#B2B2F0" stroke-width="0.54566" stroke-miterlimit="10" stroke-linecap="round" stroke-linejoin="round"/>
<path d="M12.4355 137.326L6.18774 138.63" stroke="#B2B2F0" stroke-width="0.54566" stroke-miterlimit="10" stroke-linecap="round" stroke-linejoin="round"/>
<path d="M24.009 138.336L27.7468 135.013" stroke="#B2B2F0" stroke-width="0.54566" stroke-miterlimit="10" stroke-linecap="round" stroke-linejoin="round"/>
<path d="M15.1202 142.957L15.9496 148.883" stroke="#B2B2F0" stroke-width="0.54566" stroke-miterlimit="10" stroke-linecap="round" stroke-linejoin="round"/>
<path d="M26.0934 146.346L29.4001 149.516" stroke="#B2B2F0" stroke-width="0.54566" stroke-miterlimit="10" stroke-linecap="round" stroke-linejoin="round"/>
<path d="M15.1202 162.983L19.4473 157.652" stroke="#B2B2F0" stroke-width="0.54566" stroke-miterlimit="10" stroke-linecap="round" stroke-linejoin="round"/>
<path d="M28.7507 160.32L30.9879 163.813" stroke="#B2B2F0" stroke-width="0.54566" stroke-miterlimit="10" stroke-linecap="round" stroke-linejoin="round"/>
<path d="M37.0448 155.044L42.0212 154.214" stroke="#B2B2F0" stroke-width="0.54566" stroke-miterlimit="10" stroke-linecap="round" stroke-linejoin="round"/>
<path d="M38.4691 140.977L44.3895 143.23" stroke="#B2B2F0" stroke-width="0.54566" stroke-miterlimit="10" stroke-linecap="round" stroke-linejoin="round"/>
<path d="M37.0448 129.245L40.2424 133.037" stroke="#B2B2F0" stroke-width="0.54566" stroke-miterlimit="10" stroke-linecap="round" stroke-linejoin="round"/>
<path d="M47.2378 134.183L50.79 129.245" stroke="#B2B2F0" stroke-width="0.54566" stroke-miterlimit="10" stroke-linecap="round" stroke-linejoin="round"/>
<path d="M53.5183 140.469L59.3241 142.101" stroke="#B2B2F0" stroke-width="0.54566" stroke-miterlimit="10" stroke-linecap="round" stroke-linejoin="round"/>
<path d="M51.3193 149.516L54.4678 153.505" stroke="#B2B2F0" stroke-width="0.54566" stroke-miterlimit="10" stroke-linecap="round" stroke-linejoin="round"/>
<path d="M44.2913 162.983V158.956" stroke="#B2B2F0" stroke-width="0.54566" stroke-miterlimit="10" stroke-linecap="round" stroke-linejoin="round"/>
<path d="M59.3241 108.919L61.5449 112.941" stroke="#B2B2F0" stroke-width="0.54566" stroke-miterlimit="10" stroke-linecap="round" stroke-linejoin="round"/>
<path d="M55.7937 123.865L64.5133 122.653L72.5236 143.754C70.532 145.98 68.0001 148.534 65.9812 150.378L55.7937 123.865Z" stroke="#424242" stroke-width="0.54566" stroke-miterlimit="10"/>
<path d="M65.741 81.9636C65.741 81.9636 35.3096 90.4813 16.6098 114.092C-1.86076 137.424 5.69662 155.709 13.3468 162.263C20.9969 168.816 48.2472 170.895 72.5181 143.754L64.5078 122.653L28.0523 127.712" stroke="#424242" stroke-width="0.54566" stroke-miterlimit="10" stroke-linecap="round" stroke-linejoin="round"/>
<path d="M54.9261 115.598L44.8969 125.376" stroke="#424242" stroke-width="0.54566" stroke-miterlimit="10" stroke-linecap="round" stroke-linejoin="round"/>
<path d="M56.9232 126.806L65.37 124.94" stroke="#424242" stroke-width="0.54566" stroke-miterlimit="10" stroke-linecap="round" stroke-linejoin="round"/>
<path d="M58.8877 131.182L66.7561 128.563" stroke="#424242" stroke-width="0.54566" stroke-miterlimit="10" stroke-linecap="round" stroke-linejoin="round"/>
<path d="M60.5245 136.175L68.4093 132.934" stroke="#424242" stroke-width="0.54566" stroke-miterlimit="10" stroke-linecap="round" stroke-linejoin="round"/>
<path d="M70.4336 138.363L62.718 141.992" stroke="#424242" stroke-width="0.54566" stroke-miterlimit="10" stroke-linecap="round" stroke-linejoin="round"/>
<path d="M71.7052 141.604L64.7863 146.488" stroke="#424242" stroke-width="0.54566" stroke-miterlimit="10" stroke-linecap="round" stroke-linejoin="round"/>
<path d="M66.2324 95.9325C72.4676 95.9325 77.5222 92.7883 77.5222 88.9098C77.5222 85.0313 72.4676 81.8872 66.2324 81.8872C59.9973 81.8872 54.9427 85.0313 54.9427 88.9098C54.9427 92.7883 59.9973 95.9325 66.2324 95.9325Z" stroke="#424242" stroke-width="0.54566" stroke-miterlimit="10" stroke-linecap="round" stroke-linejoin="round"/>
<path d="M63.2368 88.7189L61.2233 95.2068" stroke="#424242" stroke-width="0.54566" stroke-miterlimit="10" stroke-linecap="round" stroke-linejoin="round"/>
<path d="M66.6144 88.7189L66.9309 95.9216" stroke="#424242" stroke-width="0.54566" stroke-miterlimit="10" stroke-linecap="round" stroke-linejoin="round"/>
<path d="M70.3905 88.5006L72.3767 94.803" stroke="#424242" stroke-width="0.54566" stroke-miterlimit="10" stroke-linecap="round" stroke-linejoin="round"/>
<path d="M67.7653 77.3855C67.7653 77.3855 52.5251 76.0813 47.4668 66.8488C40.5969 54.315 46.752 38.8564 62.4288 35.2769C78.111 31.6919 67.7653 77.3855 67.7653 77.3855Z" fill="#7678ED"/>
<path d="M73.4076 80.1793C71.4213 79.1589 69.4024 78.5859 67.5963 78.4441C65.2117 78.2367 62.2324 78.8588 59.3241 80.3539C53.8893 83.1477 50.7681 87.9004 52.3451 90.9724C53.922 94.0445 59.6078 94.2682 65.0426 91.4744C65.9484 91.0106 66.7832 90.4868 67.5472 89.9302C67.7654 90.0557 67.9837 90.1812 68.2129 90.2958C73.1511 92.8386 78.3239 92.6312 79.759 89.8429C81.1941 87.0437 78.3512 82.722 73.4076 80.1793Z" fill="#E4E4FB" stroke="#424242" stroke-width="0.54566" stroke-miterlimit="10" stroke-linecap="round" stroke-linejoin="round"/>
<path d="M57.4088 58.833C58.6092 58.8221 59.7278 59.1932 60.6391 59.8261L60.6009 56.5085C60.5409 51.2538 64.2732 46.9104 68.8895 46.8558L75.8357 46.7794C80.452 46.7303 84.2771 50.9864 84.3371 56.2412L84.4571 67.007C84.5172 72.2617 80.7848 76.6052 76.1686 76.6597L72.1525 76.7034L72.218 82.5038C72.2453 84.8828 70.3191 86.8472 67.9455 86.8745L65.1899 86.9072C62.8108 86.9345 60.8464 85.0083 60.8192 82.6293L60.7482 76.0759L60.7428 75.7103L60.6718 69.1569C60.6718 69.026 60.6827 68.895 60.6937 68.7695C59.8042 69.4025 58.7184 69.7844 57.5397 69.7953C54.484 69.8281 51.9849 67.3999 51.9467 64.3715C51.9085 61.3485 54.3585 58.8658 57.4088 58.833Z" fill="#E4E4FB" stroke="#424242" stroke-width="0.54566" stroke-miterlimit="10" stroke-linecap="round" stroke-linejoin="round"/>
<path d="M86.2745 44.9951C82.946 39.1893 76.6873 35.1678 70.0193 34.5457C63.3568 33.9237 56.4651 36.7283 52.1162 41.8194C52.1162 41.8194 51.3741 58.4401 52.6892 59.9025C53.6877 58.6584 55.914 58.0636 57.6438 58.0473C58.8442 58.0364 59.4608 58.6639 60.3775 59.3023C60.3775 59.3023 61.6816 60.2354 62.8985 60.088C64.3881 59.9025 66.6962 58.9531 68.3278 56.9941C70.0739 54.8988 70.5759 51.9795 70.7341 49.2622L71.1052 49.3003C72.7694 51.6194 74.6083 54.0694 77.3093 54.9861C78.4334 55.3681 79.6338 55.4554 80.8179 55.5372C82.0784 55.6245 83.3334 55.7119 84.5939 55.7992C85.145 55.8374 85.7179 55.8701 86.22 55.6518C86.8693 55.3735 87.284 54.7242 87.5568 54.0694C88.7846 51.1447 87.8515 47.7398 86.2745 44.9951Z" fill="#7678ED"/>
<path d="M55.5386 26.9465C60.2927 22.1924 60.2927 14.4846 55.5386 9.7305C50.7845 4.97643 43.0767 4.97643 38.3226 9.7305C33.5685 14.4846 33.5685 22.1924 38.3226 26.9465C43.0767 31.7006 50.7845 31.7006 55.5386 26.9465Z" stroke="#7678ED" stroke-width="0.54566" stroke-miterlimit="10" stroke-linecap="round" stroke-linejoin="round"/>
<path d="M58.7565 34.2838L50.0424 38.1634C48.951 38.6491 47.6742 38.158 47.1886 37.0667C46.7029 35.9753 47.194 34.6985 48.2853 34.2129L56.9995 30.3332C58.0908 29.8476 59.3677 30.3387 59.8533 31.43C60.339 32.5213 59.8479 33.7982 58.7565 34.2838Z" fill="#B2B2F0"/>
<path d="M60.4699 65.0099C60.4699 65.0099 60.6718 61.283 56.8522 61.7414" stroke="#424242" stroke-width="0.54566" stroke-miterlimit="10" stroke-linecap="round" stroke-linejoin="round"/>
<path d="M70.4828 59.9189C70.4937 60.781 71.2031 61.474 72.0652 61.4686C72.9274 61.4577 73.6203 60.7483 73.6149 59.8862C73.604 59.024 72.8946 58.331 72.0325 58.3365C71.1649 58.3474 70.4719 59.0568 70.4828 59.9189Z" fill="#424242"/>
<path d="M80.7249 59.5751C80.7358 60.3118 81.336 60.9065 82.0781 60.8956C82.8148 60.8847 83.4095 60.2845 83.3986 59.5424C83.3877 58.8057 82.7875 58.211 82.0454 58.2219C81.3087 58.2328 80.7194 58.8385 80.7249 59.5751Z" fill="#424242"/>
<path d="M76.9707 64.0986L79.7317 62.3744L77.2544 58.2765" stroke="#424242" stroke-width="0.54566" stroke-miterlimit="10" stroke-linecap="round" stroke-linejoin="round"/>
<path d="M69.4733 57.7635L72.147 56.6558" stroke="#424242" stroke-width="0.54566" stroke-miterlimit="10" stroke-linecap="round" stroke-linejoin="round"/>
<path d="M80.9321 56.7159L83.5131 57.0706" stroke="#424242" stroke-width="0.54566" stroke-miterlimit="10" stroke-linecap="round" stroke-linejoin="round"/>
<path d="M79.9882 67.9456C80.0046 69.277 78.9351 70.3683 77.6037 70.3847C76.2722 70.401 75.1809 69.3315 75.1646 68.0001" stroke="#424242" stroke-width="0.54566" stroke-miterlimit="10" stroke-linecap="round" stroke-linejoin="round"/>
</g>
<mask id="mask2_34_312" style="mask-type:luminance" maskUnits="userSpaceOnUse" x="186" y="23" width="151" height="223">
<path d="M336.928 23.7744H186.097V245.334H336.928V23.7744Z" fill="white"/>
</mask>
<g mask="url(#mask2_34_312)">
<path d="M214.095 234.879C214.897 227.808 220.72 222.318 227.791 222.318C234.863 222.318 240.685 227.808 241.487 234.879H246.382C245.564 225.025 237.553 217.287 227.791 217.287C218.03 217.287 210.019 225.025 209.201 234.879H214.095Z" fill="#7678ED" stroke="#424242" stroke-width="0.54566" stroke-miterlimit="10" stroke-linecap="round" stroke-linejoin="round"/>
<path d="M250.398 260.727H197.518C195.002 260.727 192.962 258.686 192.962 256.171V237.929C192.962 235.414 195.002 233.373 197.518 233.373H250.398C252.913 233.373 254.954 235.414 254.954 237.929V256.171C254.954 258.692 252.913 260.727 250.398 260.727Z" fill="#7678ED" stroke="#424242" stroke-width="0.54566" stroke-miterlimit="10" stroke-linecap="round" stroke-linejoin="round"/>
<path d="M194.151 234.879L224.861 248.057" stroke="#424242" stroke-width="0.54566" stroke-miterlimit="10" stroke-linecap="round" stroke-linejoin="round"/>
<path d="M218.706 195.695C216.087 201.54 212.022 214.008 220.338 222.187C231.507 233.171 240.527 221.325 242.459 213.14C243.305 209.572 243.081 202.516 242.568 195.695H218.706Z" fill="#E4E4FB" stroke="#424242" stroke-width="0.54566" stroke-miterlimit="10" stroke-linecap="round" stroke-linejoin="round"/>
<path d="M266.157 82.6129C266.157 82.6129 254.049 82.9731 239.316 97.9405C231.104 106.284 223.077 119.036 217.833 137.042C210.783 161.237 207.28 181.612 207.635 198.178C207.739 203.073 210.631 206.985 215.574 208.982C220.376 210.919 227.29 209.757 231.813 208.786C242.754 206.44 249.492 199.575 249.492 199.575L266.157 82.6129Z" fill="#B2B2F0"/>
<path d="M207.668 196.639C207.187 219.061 241.597 206.625 241.597 206.625" stroke="#424242" stroke-width="0.54566" stroke-miterlimit="10" stroke-linecap="round" stroke-linejoin="round"/>
<path d="M284.344 83.7806C284.344 83.7806 308.14 85.9087 321.678 115.222C335.216 144.534 330.054 160.042 326.19 167.141C323.145 172.734 315.523 182.616 296.19 173.678C290.973 171.266 280.011 140.213 277.026 134.325C274.042 128.437 276.251 90.6068 276.251 90.6068L284.344 83.7806Z" fill="#B2B2F0"/>
<path d="M326.19 167.141C323.145 172.734 315.523 182.616 296.19 173.678C290.973 171.266 280.011 140.213 277.026 134.325C274.042 128.437 276.251 90.6068 276.251 90.6068L283.667 83.7806" stroke="#424242" stroke-width="0.54566" stroke-miterlimit="10" stroke-linecap="round" stroke-linejoin="round"/>
<path d="M233.046 186.114L307.572 196.203L308.904 251.058C307.873 251.462 235.846 253.344 226.673 252.346L233.046 186.114Z" fill="#424242"/>
<path d="M312.32 152.517L310.803 213.648L229.26 204.317L233.068 127.057L244.309 107.468L256.259 86.6454L290.499 87.0655L298.335 100.592L298.367 145.276L312.32 152.517Z" fill="#B2B2F0"/>
<path d="M312.32 152.517L310.803 213.648L229.26 204.317L233.068 127.057" stroke="#424242" stroke-width="0.54566" stroke-miterlimit="10" stroke-linecap="round" stroke-linejoin="round"/>
<path d="M257.47 82.6129L265.344 116.264L282.658 84.3918L257.47 82.6129Z" fill="#E4E4FB" stroke="#424242" stroke-width="0.54566" stroke-miterlimit="10" stroke-linecap="round" stroke-linejoin="round"/>
<path d="M265.344 116.264L262.354 208.289" stroke="#424242" stroke-width="0.54566" stroke-miterlimit="10" stroke-linecap="round" stroke-linejoin="round"/>
<path d="M253.078 91.2998L264.984 127.362L285.588 91.1416" stroke="#424242" stroke-width="0.54566" stroke-miterlimit="10" stroke-linecap="round" stroke-linejoin="round"/>
<path d="M271.062 134.718C271.062 136.437 270.277 137.834 269.311 137.834C268.345 137.834 267.559 136.437 267.559 134.718C267.559 132.999 268.345 131.602 269.311 131.602C270.277 131.602 271.062 132.999 271.062 134.718Z" stroke="#424242" stroke-width="0.54566" stroke-miterlimit="10" stroke-linecap="round" stroke-linejoin="round"/>
<path d="M271.062 158.858C271.062 160.577 270.277 161.974 269.311 161.974C268.345 161.974 267.559 160.577 267.559 158.858C267.559 157.139 268.345 155.742 269.311 155.742C270.277 155.742 271.062 157.139 271.062 158.858Z" stroke="#424242" stroke-width="0.54566" stroke-miterlimit="10" stroke-linecap="round" stroke-linejoin="round"/>
<path d="M268.001 186.119C268.969 186.119 269.753 184.724 269.753 183.003C269.753 181.283 268.969 179.888 268.001 179.888C267.034 179.888 266.25 181.283 266.25 183.003C266.25 184.724 267.034 186.119 268.001 186.119Z" stroke="#424242" stroke-width="0.54566" stroke-miterlimit="10" stroke-linecap="round" stroke-linejoin="round"/>
<path d="M318.895 149.112C318.895 149.112 313.722 140.824 304.468 141.566C295.213 142.308 281.675 153.876 290.444 168.707C294.837 176.139 305.788 179.659 314.721 176.827C315.539 176.57 317.596 175.937 319.44 174.207C320.319 173.383 321.498 172.609 322.289 171.425C323.849 169.084 324.493 165.477 324.471 161.63C324.439 154.733 318.895 149.112 318.895 149.112Z" fill="#B2B2F0"/>
<path d="M318.873 149.151C318.873 149.151 313.7 140.862 304.446 141.604C295.191 142.346 281.654 153.914 290.422 168.745C295.644 177.58 310.23 180.952 319.577 174.628" stroke="#424242" stroke-width="0.54566" stroke-miterlimit="10" stroke-linecap="round" stroke-linejoin="round"/>
<path d="M299.338 112.897L297.428 139.389C297.368 140.24 296.659 140.906 295.802 140.906H294.013H284.889H283.099C282.243 140.906 281.533 140.245 281.473 139.389L279.564 112.897H299.338Z" fill="#E4E4FB" stroke="#424242" stroke-width="0.54566" stroke-miterlimit="10"/>
<path d="M279.476 112.024H299.748V109.983C299.748 109.192 299.104 108.548 298.313 108.548H280.917C280.126 108.548 279.482 109.192 279.482 109.983L279.476 112.024Z" fill="#424242"/>
<path d="M278.865 114.25H300.217C300.872 114.25 301.406 113.721 301.406 113.061V112.837C301.406 112.182 300.877 111.647 300.217 111.647H278.865C278.21 111.647 277.676 112.177 277.676 112.837V113.061C277.676 113.721 278.21 114.25 278.865 114.25Z" fill="#424242"/>
<path d="M296.19 101.946C296.19 103.888 294.427 105.46 292.256 105.46C290.084 105.46 288.321 103.888 288.321 101.946C288.321 100.003 290.084 98.4316 292.256 98.4316C294.427 98.4316 296.19 100.009 296.19 101.946Z" stroke="#E4E4FB" stroke-width="0.54566" stroke-miterlimit="10" stroke-linecap="round" stroke-linejoin="round"/>
<path d="M293.876 93.1278C289.762 90.2685 287.192 84.8447 292.261 78.1658C297.81 70.8649 308.227 79.4153 309.929 67.329C311.632 55.2426 320.761 53.4529 327.456 60.4318C334.151 67.4163 329.382 80.1956 320.204 83.8461C311.026 87.4966 305.75 82.8039 304.637 88.8171C303.523 94.8139 296.321 94.8248 293.876 93.1278Z" stroke="#E4E4FB" stroke-width="0.54566" stroke-miterlimit="10" stroke-linecap="round" stroke-linejoin="round"/>
<path d="M301.679 143.71C301.128 142.554 300.506 141.331 299.617 138.734C299.617 138.734 298.045 122.468 295.006 121.551C290.242 120.111 292.136 130.887 292.136 130.887L291.939 130.926C289.38 129.938 282.936 127.079 280.18 122.392C280.18 122.392 278.243 122.899 278.145 124.738L278.172 124.972C277.316 125.311 276.623 126.233 276.361 128.05C275.384 128.852 273.774 131.248 274.358 134.205H274.353C273.469 135.105 273.267 136.868 273.267 136.868C272.628 140.687 275.908 146.286 280.977 150.078C286.046 153.871 292.992 156.086 296.654 154.111C299.126 152.779 300.932 149.865 301.777 147.999C302.187 147.094 302.339 145.091 301.679 143.71Z" fill="#E4E4FB"/>
<path d="M292.136 130.887C292.136 130.887 290.242 120.111 295.006 121.551C298.045 122.473 299.617 138.734 299.617 138.734C300.506 141.331 301.128 142.554 301.679 143.71C302.339 145.091 302.187 147.094 301.777 147.994C300.932 149.86 299.125 152.774 296.654 154.105C292.992 156.081 286.051 153.865 280.977 150.073C275.902 146.28 272.628 140.682 273.267 136.862C273.267 136.862 273.474 135.105 274.352 134.2" stroke="#424242" stroke-width="0.54566" stroke-miterlimit="10" stroke-linecap="round" stroke-linejoin="round"/>
<path d="M293.02 131.313C293.02 131.313 283.661 128.301 280.186 122.391C280.186 122.391 277.485 122.479 278.314 127.139C279.149 131.799 283.001 134.871 283.001 134.871" stroke="#424242" stroke-width="0.54566" stroke-miterlimit="10" stroke-linecap="round" stroke-linejoin="round"/>
<path d="M279.133 137.004C279.133 137.004 277.081 133.665 276.47 130.887C275.864 128.115 276.322 125.562 278.172 124.967" stroke="#424242" stroke-width="0.54566" stroke-miterlimit="10" stroke-linecap="round" stroke-linejoin="round"/>
<path d="M277.392 140.9C277.392 140.9 275.302 137.779 274.462 134.625C273.621 131.471 275.215 128.989 276.241 128.148" stroke="#424242" stroke-width="0.54566" stroke-miterlimit="10" stroke-linecap="round" stroke-linejoin="round"/>
<path d="M286.324 38.2781C284.6 35.5279 281.855 32.9688 277.807 30.7971L277.179 36.7502C268.847 36.1827 256.744 36.21 252.112 40.5153C244.751 47.3524 240.609 65.9266 246.082 69.9645C249.913 72.791 287.923 76.3269 294.493 66.8488C302.149 55.8101 289.413 41.4811 286.324 38.2781Z" fill="#424242"/>
<path d="M280.241 52.6071C278.876 52.6016 277.621 53.0327 276.59 53.7639C277.283 40.0787 270.784 38.4581 259.26 39.1129C247.768 39.4185 249.727 54.0149 249.662 62.107C249.858 70.8703 256.39 73.8278 263.685 72.9875C263.729 76.9871 262.468 84.4463 268.542 84.4736C272.11 84.8719 276.552 84.048 276.579 79.6063C276.568 75.4811 276.672 68.022 276.612 63.9022C285.948 69.5443 291.197 53.4146 280.241 52.6071Z" fill="#E4E4FB" stroke="#424242" stroke-width="0.54566" stroke-miterlimit="10" stroke-linecap="round" stroke-linejoin="round"/>
<path d="M280.448 32.4777C277.578 30.1968 273.911 28.9527 269.715 29.3238C240.669 20.0857 238.874 59.597 265.922 44.7059C266.757 48.5092 270.451 52.6398 273.845 54.064L276.088 58.3747L276.508 54.2931C278.107 52.4925 281.91 51.9468 284.191 54.0149C288.993 45.0115 280.448 32.4777 280.448 32.4777Z" fill="#424242"/>
<path d="M278.898 87.8567L261.622 87.4802C258.818 87.4202 256.597 85.1557 256.657 82.4274L256.728 79.3062C256.793 76.5779 259.118 74.4116 261.923 74.4716L279.198 74.8482C282.003 74.9082 284.224 77.1727 284.164 79.901L284.093 83.0221C284.033 85.7504 281.708 87.9167 278.898 87.8567Z" fill="#E4E4FB" stroke="#424242" stroke-width="0.54566" stroke-miterlimit="10" stroke-linecap="round" stroke-linejoin="round"/>
<path d="M277.239 59.6515C277.239 59.6515 276.977 55.4281 281.31 55.9138" stroke="#424242" stroke-width="0.54566" stroke-miterlimit="10" stroke-linecap="round" stroke-linejoin="round"/>
<path d="M258.125 58.7403L254.982 56.8141L257.754 52.1487" stroke="#424242" stroke-width="0.54566" stroke-miterlimit="10" stroke-linecap="round" stroke-linejoin="round"/>
<path d="M266.566 51.4994L263.527 50.2716" stroke="#424242" stroke-width="1.09132" stroke-miterlimit="10" stroke-linecap="round" stroke-linejoin="round"/>
<path d="M253.569 50.4135L250.655 50.8337" stroke="#424242" stroke-width="1.09132" stroke-miterlimit="10" stroke-linecap="round" stroke-linejoin="round"/>
<path d="M265.158 54.1567C265.158 54.9316 264.531 55.5591 263.756 55.5591C262.981 55.5591 262.354 54.9316 262.354 54.1567C262.354 53.3819 262.981 52.7544 263.756 52.7544C264.531 52.7544 265.158 53.3819 265.158 54.1567Z" fill="#424242"/>
<path d="M253.405 53.7366C253.405 54.4023 252.865 54.937 252.204 54.937C251.539 54.937 251.004 54.3968 251.004 53.7366C251.004 53.0709 251.544 52.5361 252.204 52.5361C252.865 52.5307 253.405 53.0709 253.405 53.7366Z" fill="#424242"/>
<path d="M254.736 63.1274C254.731 64.6334 255.948 65.8611 257.459 65.8666C258.965 65.872 260.193 64.6552 260.198 63.1492L254.736 63.1274Z" stroke="#424242" stroke-width="0.54566" stroke-miterlimit="10" stroke-linecap="round" stroke-linejoin="round"/>
</g>
<line y1="245.25" x2="336.93" y2="245.25" stroke="#E4E4FB" stroke-width="1.5"/>
</g>
<defs>
<clipPath id="clip0_34_312">
<rect width="336.929" height="261" fill="white"/>
</clipPath>
</defs>
</svg>
