<svg width="24" height="23" viewBox="0 0 24 23" fill="none" xmlns="http://www.w3.org/2000/svg">
<path d="M10.6097 2.65225C10.7414 2.31287 10.9727 2.02127 11.2731 1.81565C11.5735 1.61003 11.929 1.5 12.2929 1.5C12.6572 1.5 13.0125 1.61003 13.3131 1.81565C13.6133 2.02127 13.8447 2.31287 13.9763 2.65225L15.9352 7.64126H21.1691C21.5413 7.64674 21.9034 7.76329 22.2088 7.97598C22.5143 8.1887 22.7491 8.4878 22.8831 8.83495C23.0129 9.17714 23.0352 9.55058 22.9477 9.90587C22.8605 10.2611 22.667 10.5815 22.3934 10.8244L17.7717 14.9564L19.7305 18.8741C19.9081 19.2182 19.9681 19.6105 19.9016 19.9919C19.8355 20.373 19.6464 20.7222 19.3633 20.986C19.0823 21.2532 18.7251 21.4265 18.341 21.4813C17.9572 21.5361 17.5657 21.4699 17.2207 21.2921L12.2929 18.5068L7.36526 21.2003C7.02059 21.3781 6.62909 21.4442 6.24512 21.3894C5.86118 21.3347 5.50384 21.1614 5.22274 20.8942C4.93972 20.6304 4.75065 20.2812 4.68436 19.9001C4.61803 19.5187 4.67811 19.1263 4.85545 18.7823L6.81433 14.8646L2.19261 10.702C1.91904 10.459 1.72572 10.1387 1.63828 9.78345C1.55083 9.42815 1.57336 9.05471 1.70289 8.71252C1.85562 8.38826 2.09846 8.11485 2.40239 7.9249C2.70632 7.73492 3.05852 7.63646 3.4169 7.64126H8.65078L10.6097 2.65225Z" stroke="#F2F2F2" stroke-width="1.5" stroke-linecap="round" stroke-linejoin="round"/>
</svg>
